{
	"patcher" : 	{
		"fileversion" : 1,
		"appversion" : 		{
			"major" : 7,
			"minor" : 3,
			"revision" : 5,
			"architecture" : "x86",
			"modernui" : 1
		}
,
		"rect" : [ 1314.0, 79.0, 2223.0, 1327.0 ],
		"bglocked" : 0,
		"openinpresentation" : 0,
		"default_fontsize" : 12.0,
		"default_fontface" : 0,
		"default_fontname" : "Arial",
		"gridonopen" : 1,
		"gridsize" : [ 15.0, 15.0 ],
		"gridsnaponopen" : 1,
		"objectsnaponopen" : 1,
		"statusbarvisible" : 2,
		"toolbarvisible" : 1,
		"lefttoolbarpinned" : 0,
		"toptoolbarpinned" : 0,
		"righttoolbarpinned" : 0,
		"bottomtoolbarpinned" : 0,
		"toolbars_unpinned_last_save" : 0,
		"tallnewobj" : 0,
		"boxanimatetime" : 200,
		"enablehscroll" : 1,
		"enablevscroll" : 1,
		"devicewidth" : 0.0,
		"description" : "",
		"digest" : "",
		"tags" : "",
		"style" : "",
		"subpatcher_template" : "",
		"boxes" : [ 			{
				"box" : 				{
					"id" : "obj-208",
					"maxclass" : "comment",
					"numinlets" : 1,
					"numoutlets" : 0,
					"patching_rect" : [ 795.0, 413.0, 61.0, 20.0 ],
					"style" : "",
					"text" : "yellow"
				}

			}
, 			{
				"box" : 				{
					"id" : "obj-206",
					"maxclass" : "comment",
					"numinlets" : 1,
					"numoutlets" : 0,
					"patching_rect" : [ 679.75, 418.0, 40.0, 20.0 ],
					"style" : "",
					"text" : "white"
				}

			}
, 			{
				"box" : 				{
					"id" : "obj-204",
					"maxclass" : "comment",
					"numinlets" : 1,
					"numoutlets" : 0,
					"patching_rect" : [ 553.0, 413.0, 46.5, 20.0 ],
					"style" : "",
					"text" : "black"
				}

			}
, 			{
				"box" : 				{
					"id" : "obj-202",
					"maxclass" : "comment",
					"numinlets" : 1,
					"numoutlets" : 0,
					"patching_rect" : [ 298.0, 418.0, 44.0, 20.0 ],
					"style" : "",
					"text" : "blue"
				}

			}
, 			{
				"box" : 				{
					"id" : "obj-200",
					"maxclass" : "comment",
					"numinlets" : 1,
					"numoutlets" : 0,
					"patching_rect" : [ 438.0, 413.0, 44.0, 20.0 ],
					"style" : "",
					"text" : "green"
				}

			}
, 			{
				"box" : 				{
					"id" : "obj-183",
					"maxclass" : "newobj",
					"numinlets" : 1,
					"numoutlets" : 3,
					"outlettype" : [ "", "int", "int" ],
					"patching_rect" : [ 652.0, 771.0, 50.0, 22.0 ],
					"style" : "",
					"text" : "change"
				}

			}
, 			{
				"box" : 				{
					"id" : "obj-184",
					"maxclass" : "newobj",
					"numinlets" : 3,
					"numoutlets" : 0,
					"patching_rect" : [ 637.5, 934.0, 51.0, 22.0 ],
					"style" : "",
					"text" : "noteout"
				}

			}
, 			{
				"box" : 				{
					"id" : "obj-185",
					"maxclass" : "newobj",
					"numinlets" : 3,
					"numoutlets" : 3,
					"outlettype" : [ "bang", "bang", "" ],
					"patching_rect" : [ 652.0, 801.0, 46.0, 22.0 ],
					"style" : "",
					"text" : "sel 0 1"
				}

			}
, 			{
				"box" : 				{
					"id" : "obj-186",
					"maxclass" : "message",
					"numinlets" : 2,
					"numoutlets" : 1,
					"outlettype" : [ "" ],
					"patching_rect" : [ 658.0, 1014.0, 29.5, 22.0 ],
					"style" : "",
					"text" : "0"
				}

			}
, 			{
				"box" : 				{
					"id" : "obj-187",
					"maxclass" : "message",
					"numinlets" : 2,
					"numoutlets" : 1,
					"outlettype" : [ "" ],
					"patching_rect" : [ 804.5, 832.0, 31.0, 22.0 ],
					"style" : "",
					"text" : "127"
				}

			}
, 			{
				"box" : 				{
					"id" : "obj-188",
					"maxclass" : "newobj",
					"numinlets" : 3,
					"numoutlets" : 0,
					"patching_rect" : [ 799.0, 934.0, 51.0, 22.0 ],
					"style" : "",
					"text" : "noteout"
				}

			}
, 			{
				"box" : 				{
					"id" : "obj-189",
					"maxclass" : "newobj",
					"numinlets" : 3,
					"numoutlets" : 0,
					"patching_rect" : [ 745.5, 934.0, 51.0, 22.0 ],
					"style" : "",
					"text" : "noteout"
				}

			}
, 			{
				"box" : 				{
					"id" : "obj-190",
					"maxclass" : "newobj",
					"numinlets" : 3,
					"numoutlets" : 0,
					"patching_rect" : [ 692.75, 934.0, 51.0, 22.0 ],
					"style" : "",
					"text" : "noteout"
				}

			}
, 			{
				"box" : 				{
					"id" : "obj-191",
					"maxclass" : "newobj",
					"numinlets" : 2,
					"numoutlets" : 1,
					"outlettype" : [ "int" ],
					"patching_rect" : [ 762.5, 832.0, 34.0, 22.0 ],
					"style" : "",
					"text" : "+ 12"
				}

			}
, 			{
				"box" : 				{
					"id" : "obj-192",
					"maxclass" : "newobj",
					"numinlets" : 2,
					"numoutlets" : 1,
					"outlettype" : [ "int" ],
					"patching_rect" : [ 726.5, 832.0, 29.5, 22.0 ],
					"style" : "",
					"text" : "+ 7"
				}

			}
, 			{
				"box" : 				{
					"id" : "obj-193",
					"maxclass" : "newobj",
					"numinlets" : 2,
					"numoutlets" : 1,
					"outlettype" : [ "int" ],
					"patching_rect" : [ 692.75, 832.0, 29.5, 22.0 ],
					"style" : "",
					"text" : "+ 4"
				}

			}
, 			{
				"box" : 				{
					"id" : "obj-194",
					"maxclass" : "number",
					"numinlets" : 1,
					"numoutlets" : 2,
					"outlettype" : [ "", "bang" ],
					"parameter_enable" : 0,
					"patching_rect" : [ 637.5, 832.0, 50.0, 22.0 ],
					"style" : ""
				}

			}
, 			{
				"box" : 				{
					"fontname" : "Arial",
					"fontsize" : 12.0,
					"id" : "obj-195",
					"maxclass" : "number",
					"numinlets" : 1,
					"numoutlets" : 2,
					"outlettype" : [ "", "bang" ],
					"parameter_enable" : 0,
					"patching_rect" : [ 697.0, 1027.0, 50.0, 22.0 ],
					"style" : ""
				}

			}
, 			{
				"box" : 				{
					"fontname" : "Arial",
					"fontsize" : 12.0,
					"id" : "obj-196",
					"maxclass" : "newobj",
					"numinlets" : 2,
					"numoutlets" : 1,
					"outlettype" : [ "int" ],
					"patching_rect" : [ 698.5, 1001.0, 32.5, 22.0 ],
					"style" : "",
					"text" : "+ 1"
				}

			}
, 			{
				"box" : 				{
					"allowdrag" : 0,
					"id" : "obj-197",
					"items" : [ "Acoustic", "Grand", "Piano", ",", "Bright", "Acoustic", "Piano", ",", "Electric", "Grand", "Piano", ",", "Honky-Tonk", "Piano", ",", "Electric", "Piano", 1, ",", "Electric", "Piano", 2, ",", "Harpsichord", ",", "Clavinet", ",", "Celesta", ",", "Glockenspiel", ",", "Music", "Box", ",", "Vibraphone", ",", "Marimba", ",", "Xylophone", ",", "Tubular", "Bells", ",", "Dulcimer", ",", "Drawbar", "Organ", ",", "Percussive", "Organ", ",", "Rock", "Organ", ",", "Church", "Organ", ",", "Reed", "Organ", ",", "Accordion", ",", "Harmonica", ",", "Tango", "Accordion", ",", "Nylon", "Acoustic", "Guitar", ",", "Steel", "Acoustic", "Guitar", ",", "Jazz", "Acoustic", "Guitar", ",", "Clean", "Electric", "Guitar", ",", "Muted", "Electric", "Guitar", ",", "Overdriven", "Guitar", ",", "Distortion", "Guitar", ",", "Guitar", "Harmonics", ",", "Acoustic", "Bass", ",", "Fingered", "Electric", "Bass", ",", "Picked", "Electric", "Bass", ",", "Fretless", "Bass", ",", "Slap", "Bass", 1, ",", "Slap", "Bass", 2, ",", "Synth", "Bass", 1, ",", "Synth", "Bass", 2, ",", "Violin", ",", "Viola", ",", "Cello", ",", "Contrabass", ",", "Tremolo", "Strings", ",", "Pizzicato", "Strings", ",", "Orchestral", "Harp", ",", "Timpani", ",", "String", "Ensemble", 1, ",", "String", "Ensemble", 2, ",", "Synth", "Strings", 1, ",", "Synth", "Strings", 2, ",", "Choir", "Aahs", ",", "Voice", "Oohs", ",", "Synth", "Voice", ",", "Orchestra", "Hit", ",", "Trumpet", ",", "Trombone", ",", "Tuba", ",", "Muted", "Trumpet", ",", "French", "Horn", ",", "Brass", "Section", ",", "Synth", "Brass", 1, ",", "Synth", "Brass", 2, ",", "Soprano", "Sax", ",", "Alto", "Sax", ",", "Tenor", "Sax", ",", "Baritone", "Sax", ",", "Oboe", ",", "English", "Horn", ",", "Bassoon", ",", "Clarinet", ",", "Piccolo", ",", "Flute", ",", "Recorder", ",", "Pan", "Flute", ",", "Blown", "Bottle", ",", "Shakuhachi", ",", "Whistle", ",", "Ocarina", ",", "Square", ",", "Sawtooth", ",", "Calliope", ",", "Chiff", ",", "Charang", ",", "Voice", ",", "Fifths", ",", "Bass", "&", "Lead", ",", "New", "Age", ",", "Warm", ",", "Polysynth", ",", "Choir", ",", "Bowed", ",", "Metallic", ",", "Halo", ",", "Sweep", ",", "Rain", ",", "Soundtrack", ",", "Crystal", ",", "Atmosphere", ",", "Brightness", ",", "Goblins", ",", "Echoes", ",", "Sci-Fi", ",", "Sitar", ",", "Banjo", ",", "Shamisen", ",", "Koto", ",", "Kalimba", ",", "Bag", "Pipe", ",", "Fiddle", ",", "Shanai", ",", "Tinkle", "Bell", ",", "Agogo", ",", "Steel", "Drums", ",", "Woodblock", ",", "Taiko", "Drum", ",", "Melodic", "Tom", ",", "Synth", "Drum", ",", "Reverse", "Cymbal", ",", "Guitar", "Fret", "Noise", ",", "Breath", "Noise", ",", "Seashore", ",", "Bird", "Tweet", ",", "Telephone", "Ring", ",", "Helicopter", ",", "Applause", ",", "Gunshot" ],
					"maxclass" : "umenu",
					"numinlets" : 1,
					"numoutlets" : 3,
					"outlettype" : [ "int", "", "" ],
					"parameter_enable" : 0,
					"patching_rect" : [ 697.0, 983.0, 165.0, 22.0 ],
					"style" : ""
				}

			}
, 			{
				"box" : 				{
					"fontname" : "Arial",
					"fontsize" : 12.0,
					"id" : "obj-198",
					"maxclass" : "newobj",
					"numinlets" : 2,
					"numoutlets" : 0,
					"patching_rect" : [ 697.0, 1049.0, 51.0, 22.0 ],
					"style" : "",
					"text" : "pgmout"
				}

			}
, 			{
				"box" : 				{
					"id" : "obj-167",
					"maxclass" : "newobj",
					"numinlets" : 1,
					"numoutlets" : 3,
					"outlettype" : [ "", "int", "int" ],
					"patching_rect" : [ 856.0, 459.0, 50.0, 22.0 ],
					"style" : "",
					"text" : "change"
				}

			}
, 			{
				"box" : 				{
					"id" : "obj-168",
					"maxclass" : "newobj",
					"numinlets" : 3,
					"numoutlets" : 0,
					"patching_rect" : [ 841.5, 622.0, 51.0, 22.0 ],
					"style" : "",
					"text" : "noteout"
				}

			}
, 			{
				"box" : 				{
					"id" : "obj-169",
					"maxclass" : "newobj",
					"numinlets" : 3,
					"numoutlets" : 3,
					"outlettype" : [ "bang", "bang", "" ],
					"patching_rect" : [ 856.0, 489.0, 46.0, 22.0 ],
					"style" : "",
					"text" : "sel 0 1"
				}

			}
, 			{
				"box" : 				{
					"id" : "obj-170",
					"maxclass" : "message",
					"numinlets" : 2,
					"numoutlets" : 1,
					"outlettype" : [ "" ],
					"patching_rect" : [ 862.0, 702.0, 29.5, 22.0 ],
					"style" : "",
					"text" : "0"
				}

			}
, 			{
				"box" : 				{
					"id" : "obj-171",
					"maxclass" : "message",
					"numinlets" : 2,
					"numoutlets" : 1,
					"outlettype" : [ "" ],
					"patching_rect" : [ 1008.5, 520.0, 31.0, 22.0 ],
					"style" : "",
					"text" : "127"
				}

			}
, 			{
				"box" : 				{
					"id" : "obj-172",
					"maxclass" : "newobj",
					"numinlets" : 3,
					"numoutlets" : 0,
					"patching_rect" : [ 1003.0, 622.0, 51.0, 22.0 ],
					"style" : "",
					"text" : "noteout"
				}

			}
, 			{
				"box" : 				{
					"id" : "obj-173",
					"maxclass" : "newobj",
					"numinlets" : 3,
					"numoutlets" : 0,
					"patching_rect" : [ 949.5, 622.0, 51.0, 22.0 ],
					"style" : "",
					"text" : "noteout"
				}

			}
, 			{
				"box" : 				{
					"id" : "obj-174",
					"maxclass" : "newobj",
					"numinlets" : 3,
					"numoutlets" : 0,
					"patching_rect" : [ 896.75, 622.0, 51.0, 22.0 ],
					"style" : "",
					"text" : "noteout"
				}

			}
, 			{
				"box" : 				{
					"id" : "obj-175",
					"maxclass" : "newobj",
					"numinlets" : 2,
					"numoutlets" : 1,
					"outlettype" : [ "int" ],
					"patching_rect" : [ 966.5, 520.0, 34.0, 22.0 ],
					"style" : "",
					"text" : "+ 12"
				}

			}
, 			{
				"box" : 				{
					"id" : "obj-176",
					"maxclass" : "newobj",
					"numinlets" : 2,
					"numoutlets" : 1,
					"outlettype" : [ "int" ],
					"patching_rect" : [ 930.5, 520.0, 29.5, 22.0 ],
					"style" : "",
					"text" : "+ 7"
				}

			}
, 			{
				"box" : 				{
					"id" : "obj-177",
					"maxclass" : "newobj",
					"numinlets" : 2,
					"numoutlets" : 1,
					"outlettype" : [ "int" ],
					"patching_rect" : [ 896.75, 520.0, 29.5, 22.0 ],
					"style" : "",
					"text" : "+ 4"
				}

			}
, 			{
				"box" : 				{
					"id" : "obj-178",
					"maxclass" : "number",
					"numinlets" : 1,
					"numoutlets" : 2,
					"outlettype" : [ "", "bang" ],
					"parameter_enable" : 0,
					"patching_rect" : [ 841.5, 520.0, 50.0, 22.0 ],
					"style" : ""
				}

			}
, 			{
				"box" : 				{
					"fontname" : "Arial",
					"fontsize" : 12.0,
					"id" : "obj-179",
					"maxclass" : "number",
					"numinlets" : 1,
					"numoutlets" : 2,
					"outlettype" : [ "", "bang" ],
					"parameter_enable" : 0,
					"patching_rect" : [ 901.0, 715.0, 50.0, 22.0 ],
					"style" : ""
				}

			}
, 			{
				"box" : 				{
					"fontname" : "Arial",
					"fontsize" : 12.0,
					"id" : "obj-180",
					"maxclass" : "newobj",
					"numinlets" : 2,
					"numoutlets" : 1,
					"outlettype" : [ "int" ],
					"patching_rect" : [ 902.5, 689.0, 32.5, 22.0 ],
					"style" : "",
					"text" : "+ 1"
				}

			}
, 			{
				"box" : 				{
					"allowdrag" : 0,
					"id" : "obj-181",
					"items" : [ "Acoustic", "Grand", "Piano", ",", "Bright", "Acoustic", "Piano", ",", "Electric", "Grand", "Piano", ",", "Honky-Tonk", "Piano", ",", "Electric", "Piano", 1, ",", "Electric", "Piano", 2, ",", "Harpsichord", ",", "Clavinet", ",", "Celesta", ",", "Glockenspiel", ",", "Music", "Box", ",", "Vibraphone", ",", "Marimba", ",", "Xylophone", ",", "Tubular", "Bells", ",", "Dulcimer", ",", "Drawbar", "Organ", ",", "Percussive", "Organ", ",", "Rock", "Organ", ",", "Church", "Organ", ",", "Reed", "Organ", ",", "Accordion", ",", "Harmonica", ",", "Tango", "Accordion", ",", "Nylon", "Acoustic", "Guitar", ",", "Steel", "Acoustic", "Guitar", ",", "Jazz", "Acoustic", "Guitar", ",", "Clean", "Electric", "Guitar", ",", "Muted", "Electric", "Guitar", ",", "Overdriven", "Guitar", ",", "Distortion", "Guitar", ",", "Guitar", "Harmonics", ",", "Acoustic", "Bass", ",", "Fingered", "Electric", "Bass", ",", "Picked", "Electric", "Bass", ",", "Fretless", "Bass", ",", "Slap", "Bass", 1, ",", "Slap", "Bass", 2, ",", "Synth", "Bass", 1, ",", "Synth", "Bass", 2, ",", "Violin", ",", "Viola", ",", "Cello", ",", "Contrabass", ",", "Tremolo", "Strings", ",", "Pizzicato", "Strings", ",", "Orchestral", "Harp", ",", "Timpani", ",", "String", "Ensemble", 1, ",", "String", "Ensemble", 2, ",", "Synth", "Strings", 1, ",", "Synth", "Strings", 2, ",", "Choir", "Aahs", ",", "Voice", "Oohs", ",", "Synth", "Voice", ",", "Orchestra", "Hit", ",", "Trumpet", ",", "Trombone", ",", "Tuba", ",", "Muted", "Trumpet", ",", "French", "Horn", ",", "Brass", "Section", ",", "Synth", "Brass", 1, ",", "Synth", "Brass", 2, ",", "Soprano", "Sax", ",", "Alto", "Sax", ",", "Tenor", "Sax", ",", "Baritone", "Sax", ",", "Oboe", ",", "English", "Horn", ",", "Bassoon", ",", "Clarinet", ",", "Piccolo", ",", "Flute", ",", "Recorder", ",", "Pan", "Flute", ",", "Blown", "Bottle", ",", "Shakuhachi", ",", "Whistle", ",", "Ocarina", ",", "Square", ",", "Sawtooth", ",", "Calliope", ",", "Chiff", ",", "Charang", ",", "Voice", ",", "Fifths", ",", "Bass", "&", "Lead", ",", "New", "Age", ",", "Warm", ",", "Polysynth", ",", "Choir", ",", "Bowed", ",", "Metallic", ",", "Halo", ",", "Sweep", ",", "Rain", ",", "Soundtrack", ",", "Crystal", ",", "Atmosphere", ",", "Brightness", ",", "Goblins", ",", "Echoes", ",", "Sci-Fi", ",", "Sitar", ",", "Banjo", ",", "Shamisen", ",", "Koto", ",", "Kalimba", ",", "Bag", "Pipe", ",", "Fiddle", ",", "Shanai", ",", "Tinkle", "Bell", ",", "Agogo", ",", "Steel", "Drums", ",", "Woodblock", ",", "Taiko", "Drum", ",", "Melodic", "Tom", ",", "Synth", "Drum", ",", "Reverse", "Cymbal", ",", "Guitar", "Fret", "Noise", ",", "Breath", "Noise", ",", "Seashore", ",", "Bird", "Tweet", ",", "Telephone", "Ring", ",", "Helicopter", ",", "Applause", ",", "Gunshot" ],
					"maxclass" : "umenu",
					"numinlets" : 1,
					"numoutlets" : 3,
					"outlettype" : [ "int", "", "" ],
					"parameter_enable" : 0,
					"patching_rect" : [ 901.0, 671.0, 165.0, 22.0 ],
					"style" : ""
				}

			}
, 			{
				"box" : 				{
					"fontname" : "Arial",
					"fontsize" : 12.0,
					"id" : "obj-182",
					"maxclass" : "newobj",
					"numinlets" : 2,
					"numoutlets" : 0,
					"patching_rect" : [ 901.0, 737.0, 51.0, 22.0 ],
					"style" : "",
					"text" : "pgmout"
				}

			}
, 			{
				"box" : 				{
					"id" : "obj-151",
					"maxclass" : "newobj",
					"numinlets" : 1,
					"numoutlets" : 3,
					"outlettype" : [ "", "int", "int" ],
					"patching_rect" : [ 639.0, 443.0, 50.0, 22.0 ],
					"style" : "",
					"text" : "change"
				}

			}
, 			{
				"box" : 				{
					"id" : "obj-152",
					"maxclass" : "newobj",
					"numinlets" : 3,
					"numoutlets" : 0,
					"patching_rect" : [ 624.5, 606.0, 51.0, 22.0 ],
					"style" : "",
					"text" : "noteout"
				}

			}
, 			{
				"box" : 				{
					"id" : "obj-153",
					"maxclass" : "newobj",
					"numinlets" : 3,
					"numoutlets" : 3,
					"outlettype" : [ "bang", "bang", "" ],
					"patching_rect" : [ 639.0, 473.0, 46.0, 22.0 ],
					"style" : "",
					"text" : "sel 0 1"
				}

			}
, 			{
				"box" : 				{
					"id" : "obj-154",
					"maxclass" : "message",
					"numinlets" : 2,
					"numoutlets" : 1,
					"outlettype" : [ "" ],
					"patching_rect" : [ 645.0, 686.0, 29.5, 22.0 ],
					"style" : "",
					"text" : "0"
				}

			}
, 			{
				"box" : 				{
					"id" : "obj-155",
					"maxclass" : "message",
					"numinlets" : 2,
					"numoutlets" : 1,
					"outlettype" : [ "" ],
					"patching_rect" : [ 791.5, 504.0, 31.0, 22.0 ],
					"style" : "",
					"text" : "127"
				}

			}
, 			{
				"box" : 				{
					"id" : "obj-156",
					"maxclass" : "newobj",
					"numinlets" : 3,
					"numoutlets" : 0,
					"patching_rect" : [ 786.0, 606.0, 51.0, 22.0 ],
					"style" : "",
					"text" : "noteout"
				}

			}
, 			{
				"box" : 				{
					"id" : "obj-157",
					"maxclass" : "newobj",
					"numinlets" : 3,
					"numoutlets" : 0,
					"patching_rect" : [ 732.5, 606.0, 51.0, 22.0 ],
					"style" : "",
					"text" : "noteout"
				}

			}
, 			{
				"box" : 				{
					"id" : "obj-158",
					"maxclass" : "newobj",
					"numinlets" : 3,
					"numoutlets" : 0,
					"patching_rect" : [ 679.75, 606.0, 51.0, 22.0 ],
					"style" : "",
					"text" : "noteout"
				}

			}
, 			{
				"box" : 				{
					"id" : "obj-159",
					"maxclass" : "newobj",
					"numinlets" : 2,
					"numoutlets" : 1,
					"outlettype" : [ "int" ],
					"patching_rect" : [ 749.5, 504.0, 34.0, 22.0 ],
					"style" : "",
					"text" : "+ 12"
				}

			}
, 			{
				"box" : 				{
					"id" : "obj-160",
					"maxclass" : "newobj",
					"numinlets" : 2,
					"numoutlets" : 1,
					"outlettype" : [ "int" ],
					"patching_rect" : [ 713.5, 504.0, 29.5, 22.0 ],
					"style" : "",
					"text" : "+ 7"
				}

			}
, 			{
				"box" : 				{
					"id" : "obj-161",
					"maxclass" : "newobj",
					"numinlets" : 2,
					"numoutlets" : 1,
					"outlettype" : [ "int" ],
					"patching_rect" : [ 679.75, 504.0, 29.5, 22.0 ],
					"style" : "",
					"text" : "+ 4"
				}

			}
, 			{
				"box" : 				{
					"id" : "obj-162",
					"maxclass" : "number",
					"numinlets" : 1,
					"numoutlets" : 2,
					"outlettype" : [ "", "bang" ],
					"parameter_enable" : 0,
					"patching_rect" : [ 624.5, 504.0, 50.0, 22.0 ],
					"style" : ""
				}

			}
, 			{
				"box" : 				{
					"fontname" : "Arial",
					"fontsize" : 12.0,
					"id" : "obj-163",
					"maxclass" : "number",
					"numinlets" : 1,
					"numoutlets" : 2,
					"outlettype" : [ "", "bang" ],
					"parameter_enable" : 0,
					"patching_rect" : [ 684.0, 699.0, 50.0, 22.0 ],
					"style" : ""
				}

			}
, 			{
				"box" : 				{
					"fontname" : "Arial",
					"fontsize" : 12.0,
					"id" : "obj-164",
					"maxclass" : "newobj",
					"numinlets" : 2,
					"numoutlets" : 1,
					"outlettype" : [ "int" ],
					"patching_rect" : [ 685.5, 673.0, 32.5, 22.0 ],
					"style" : "",
					"text" : "+ 1"
				}

			}
, 			{
				"box" : 				{
					"allowdrag" : 0,
					"id" : "obj-165",
					"items" : [ "Acoustic", "Grand", "Piano", ",", "Bright", "Acoustic", "Piano", ",", "Electric", "Grand", "Piano", ",", "Honky-Tonk", "Piano", ",", "Electric", "Piano", 1, ",", "Electric", "Piano", 2, ",", "Harpsichord", ",", "Clavinet", ",", "Celesta", ",", "Glockenspiel", ",", "Music", "Box", ",", "Vibraphone", ",", "Marimba", ",", "Xylophone", ",", "Tubular", "Bells", ",", "Dulcimer", ",", "Drawbar", "Organ", ",", "Percussive", "Organ", ",", "Rock", "Organ", ",", "Church", "Organ", ",", "Reed", "Organ", ",", "Accordion", ",", "Harmonica", ",", "Tango", "Accordion", ",", "Nylon", "Acoustic", "Guitar", ",", "Steel", "Acoustic", "Guitar", ",", "Jazz", "Acoustic", "Guitar", ",", "Clean", "Electric", "Guitar", ",", "Muted", "Electric", "Guitar", ",", "Overdriven", "Guitar", ",", "Distortion", "Guitar", ",", "Guitar", "Harmonics", ",", "Acoustic", "Bass", ",", "Fingered", "Electric", "Bass", ",", "Picked", "Electric", "Bass", ",", "Fretless", "Bass", ",", "Slap", "Bass", 1, ",", "Slap", "Bass", 2, ",", "Synth", "Bass", 1, ",", "Synth", "Bass", 2, ",", "Violin", ",", "Viola", ",", "Cello", ",", "Contrabass", ",", "Tremolo", "Strings", ",", "Pizzicato", "Strings", ",", "Orchestral", "Harp", ",", "Timpani", ",", "String", "Ensemble", 1, ",", "String", "Ensemble", 2, ",", "Synth", "Strings", 1, ",", "Synth", "Strings", 2, ",", "Choir", "Aahs", ",", "Voice", "Oohs", ",", "Synth", "Voice", ",", "Orchestra", "Hit", ",", "Trumpet", ",", "Trombone", ",", "Tuba", ",", "Muted", "Trumpet", ",", "French", "Horn", ",", "Brass", "Section", ",", "Synth", "Brass", 1, ",", "Synth", "Brass", 2, ",", "Soprano", "Sax", ",", "Alto", "Sax", ",", "Tenor", "Sax", ",", "Baritone", "Sax", ",", "Oboe", ",", "English", "Horn", ",", "Bassoon", ",", "Clarinet", ",", "Piccolo", ",", "Flute", ",", "Recorder", ",", "Pan", "Flute", ",", "Blown", "Bottle", ",", "Shakuhachi", ",", "Whistle", ",", "Ocarina", ",", "Square", ",", "Sawtooth", ",", "Calliope", ",", "Chiff", ",", "Charang", ",", "Voice", ",", "Fifths", ",", "Bass", "&", "Lead", ",", "New", "Age", ",", "Warm", ",", "Polysynth", ",", "Choir", ",", "Bowed", ",", "Metallic", ",", "Halo", ",", "Sweep", ",", "Rain", ",", "Soundtrack", ",", "Crystal", ",", "Atmosphere", ",", "Brightness", ",", "Goblins", ",", "Echoes", ",", "Sci-Fi", ",", "Sitar", ",", "Banjo", ",", "Shamisen", ",", "Koto", ",", "Kalimba", ",", "Bag", "Pipe", ",", "Fiddle", ",", "Shanai", ",", "Tinkle", "Bell", ",", "Agogo", ",", "Steel", "Drums", ",", "Woodblock", ",", "Taiko", "Drum", ",", "Melodic", "Tom", ",", "Synth", "Drum", ",", "Reverse", "Cymbal", ",", "Guitar", "Fret", "Noise", ",", "Breath", "Noise", ",", "Seashore", ",", "Bird", "Tweet", ",", "Telephone", "Ring", ",", "Helicopter", ",", "Applause", ",", "Gunshot" ],
					"maxclass" : "umenu",
					"numinlets" : 1,
					"numoutlets" : 3,
					"outlettype" : [ "int", "", "" ],
					"parameter_enable" : 0,
					"patching_rect" : [ 684.0, 655.0, 165.0, 22.0 ],
					"style" : ""
				}

			}
, 			{
				"box" : 				{
					"fontname" : "Arial",
					"fontsize" : 12.0,
					"id" : "obj-166",
					"maxclass" : "newobj",
					"numinlets" : 2,
					"numoutlets" : 0,
					"patching_rect" : [ 684.0, 721.0, 51.0, 22.0 ],
					"style" : "",
					"text" : "pgmout"
				}

			}
, 			{
				"box" : 				{
					"id" : "obj-135",
					"maxclass" : "newobj",
					"numinlets" : 1,
					"numoutlets" : 3,
					"outlettype" : [ "", "int", "int" ],
					"patching_rect" : [ 438.0, 438.0, 50.0, 22.0 ],
					"style" : "",
					"text" : "change"
				}

			}
, 			{
				"box" : 				{
					"id" : "obj-136",
					"maxclass" : "newobj",
					"numinlets" : 3,
					"numoutlets" : 0,
					"patching_rect" : [ 423.5, 601.0, 51.0, 22.0 ],
					"style" : "",
					"text" : "noteout"
				}

			}
, 			{
				"box" : 				{
					"id" : "obj-137",
					"maxclass" : "newobj",
					"numinlets" : 3,
					"numoutlets" : 3,
					"outlettype" : [ "bang", "bang", "" ],
					"patching_rect" : [ 438.0, 468.0, 46.0, 22.0 ],
					"style" : "",
					"text" : "sel 0 1"
				}

			}
, 			{
				"box" : 				{
					"id" : "obj-138",
					"maxclass" : "message",
					"numinlets" : 2,
					"numoutlets" : 1,
					"outlettype" : [ "" ],
					"patching_rect" : [ 444.0, 681.0, 29.5, 22.0 ],
					"style" : "",
					"text" : "0"
				}

			}
, 			{
				"box" : 				{
					"id" : "obj-139",
					"maxclass" : "message",
					"numinlets" : 2,
					"numoutlets" : 1,
					"outlettype" : [ "" ],
					"patching_rect" : [ 588.5, 512.0, 31.0, 22.0 ],
					"style" : "",
					"text" : "127"
				}

			}
, 			{
				"box" : 				{
					"id" : "obj-140",
					"maxclass" : "newobj",
					"numinlets" : 3,
					"numoutlets" : 0,
					"patching_rect" : [ 583.0, 614.0, 51.0, 22.0 ],
					"style" : "",
					"text" : "noteout"
				}

			}
, 			{
				"box" : 				{
					"id" : "obj-141",
					"maxclass" : "newobj",
					"numinlets" : 3,
					"numoutlets" : 0,
					"patching_rect" : [ 531.5, 601.0, 51.0, 22.0 ],
					"style" : "",
					"text" : "noteout"
				}

			}
, 			{
				"box" : 				{
					"id" : "obj-142",
					"maxclass" : "newobj",
					"numinlets" : 3,
					"numoutlets" : 0,
					"patching_rect" : [ 478.75, 601.0, 51.0, 22.0 ],
					"style" : "",
					"text" : "noteout"
				}

			}
, 			{
				"box" : 				{
					"id" : "obj-143",
					"maxclass" : "newobj",
					"numinlets" : 2,
					"numoutlets" : 1,
					"outlettype" : [ "int" ],
					"patching_rect" : [ 548.5, 499.0, 34.0, 22.0 ],
					"style" : "",
					"text" : "+ 12"
				}

			}
, 			{
				"box" : 				{
					"id" : "obj-144",
					"maxclass" : "newobj",
					"numinlets" : 2,
					"numoutlets" : 1,
					"outlettype" : [ "int" ],
					"patching_rect" : [ 512.5, 499.0, 29.5, 22.0 ],
					"style" : "",
					"text" : "+ 7"
				}

			}
, 			{
				"box" : 				{
					"id" : "obj-145",
					"maxclass" : "newobj",
					"numinlets" : 2,
					"numoutlets" : 1,
					"outlettype" : [ "int" ],
					"patching_rect" : [ 478.75, 499.0, 29.5, 22.0 ],
					"style" : "",
					"text" : "+ 4"
				}

			}
, 			{
				"box" : 				{
					"id" : "obj-146",
					"maxclass" : "number",
					"numinlets" : 1,
					"numoutlets" : 2,
					"outlettype" : [ "", "bang" ],
					"parameter_enable" : 0,
					"patching_rect" : [ 423.5, 499.0, 50.0, 22.0 ],
					"style" : ""
				}

			}
, 			{
				"box" : 				{
					"fontname" : "Arial",
					"fontsize" : 12.0,
					"id" : "obj-147",
					"maxclass" : "number",
					"numinlets" : 1,
					"numoutlets" : 2,
					"outlettype" : [ "", "bang" ],
					"parameter_enable" : 0,
					"patching_rect" : [ 483.0, 694.0, 50.0, 22.0 ],
					"style" : ""
				}

			}
, 			{
				"box" : 				{
					"fontname" : "Arial",
					"fontsize" : 12.0,
					"id" : "obj-148",
					"maxclass" : "newobj",
					"numinlets" : 2,
					"numoutlets" : 1,
					"outlettype" : [ "int" ],
					"patching_rect" : [ 484.5, 668.0, 32.5, 22.0 ],
					"style" : "",
					"text" : "+ 1"
				}

			}
, 			{
				"box" : 				{
					"allowdrag" : 0,
					"id" : "obj-149",
					"items" : [ "Acoustic", "Grand", "Piano", ",", "Bright", "Acoustic", "Piano", ",", "Electric", "Grand", "Piano", ",", "Honky-Tonk", "Piano", ",", "Electric", "Piano", 1, ",", "Electric", "Piano", 2, ",", "Harpsichord", ",", "Clavinet", ",", "Celesta", ",", "Glockenspiel", ",", "Music", "Box", ",", "Vibraphone", ",", "Marimba", ",", "Xylophone", ",", "Tubular", "Bells", ",", "Dulcimer", ",", "Drawbar", "Organ", ",", "Percussive", "Organ", ",", "Rock", "Organ", ",", "Church", "Organ", ",", "Reed", "Organ", ",", "Accordion", ",", "Harmonica", ",", "Tango", "Accordion", ",", "Nylon", "Acoustic", "Guitar", ",", "Steel", "Acoustic", "Guitar", ",", "Jazz", "Acoustic", "Guitar", ",", "Clean", "Electric", "Guitar", ",", "Muted", "Electric", "Guitar", ",", "Overdriven", "Guitar", ",", "Distortion", "Guitar", ",", "Guitar", "Harmonics", ",", "Acoustic", "Bass", ",", "Fingered", "Electric", "Bass", ",", "Picked", "Electric", "Bass", ",", "Fretless", "Bass", ",", "Slap", "Bass", 1, ",", "Slap", "Bass", 2, ",", "Synth", "Bass", 1, ",", "Synth", "Bass", 2, ",", "Violin", ",", "Viola", ",", "Cello", ",", "Contrabass", ",", "Tremolo", "Strings", ",", "Pizzicato", "Strings", ",", "Orchestral", "Harp", ",", "Timpani", ",", "String", "Ensemble", 1, ",", "String", "Ensemble", 2, ",", "Synth", "Strings", 1, ",", "Synth", "Strings", 2, ",", "Choir", "Aahs", ",", "Voice", "Oohs", ",", "Synth", "Voice", ",", "Orchestra", "Hit", ",", "Trumpet", ",", "Trombone", ",", "Tuba", ",", "Muted", "Trumpet", ",", "French", "Horn", ",", "Brass", "Section", ",", "Synth", "Brass", 1, ",", "Synth", "Brass", 2, ",", "Soprano", "Sax", ",", "Alto", "Sax", ",", "Tenor", "Sax", ",", "Baritone", "Sax", ",", "Oboe", ",", "English", "Horn", ",", "Bassoon", ",", "Clarinet", ",", "Piccolo", ",", "Flute", ",", "Recorder", ",", "Pan", "Flute", ",", "Blown", "Bottle", ",", "Shakuhachi", ",", "Whistle", ",", "Ocarina", ",", "Square", ",", "Sawtooth", ",", "Calliope", ",", "Chiff", ",", "Charang", ",", "Voice", ",", "Fifths", ",", "Bass", "&", "Lead", ",", "New", "Age", ",", "Warm", ",", "Polysynth", ",", "Choir", ",", "Bowed", ",", "Metallic", ",", "Halo", ",", "Sweep", ",", "Rain", ",", "Soundtrack", ",", "Crystal", ",", "Atmosphere", ",", "Brightness", ",", "Goblins", ",", "Echoes", ",", "Sci-Fi", ",", "Sitar", ",", "Banjo", ",", "Shamisen", ",", "Koto", ",", "Kalimba", ",", "Bag", "Pipe", ",", "Fiddle", ",", "Shanai", ",", "Tinkle", "Bell", ",", "Agogo", ",", "Steel", "Drums", ",", "Woodblock", ",", "Taiko", "Drum", ",", "Melodic", "Tom", ",", "Synth", "Drum", ",", "Reverse", "Cymbal", ",", "Guitar", "Fret", "Noise", ",", "Breath", "Noise", ",", "Seashore", ",", "Bird", "Tweet", ",", "Telephone", "Ring", ",", "Helicopter", ",", "Applause", ",", "Gunshot" ],
					"maxclass" : "umenu",
					"numinlets" : 1,
					"numoutlets" : 3,
					"outlettype" : [ "int", "", "" ],
					"parameter_enable" : 0,
					"patching_rect" : [ 483.0, 650.0, 165.0, 22.0 ],
					"style" : ""
				}

			}
, 			{
				"box" : 				{
					"fontname" : "Arial",
					"fontsize" : 12.0,
					"id" : "obj-150",
					"maxclass" : "newobj",
					"numinlets" : 2,
					"numoutlets" : 0,
					"patching_rect" : [ 481.0, 729.0, 51.0, 22.0 ],
					"style" : "",
					"text" : "pgmout"
				}

			}
, 			{
				"box" : 				{
					"id" : "obj-119",
					"maxclass" : "newobj",
					"numinlets" : 1,
					"numoutlets" : 3,
					"outlettype" : [ "", "int", "int" ],
					"patching_rect" : [ 238.0, 418.0, 50.0, 22.0 ],
					"style" : "",
					"text" : "change"
				}

			}
, 			{
				"box" : 				{
					"id" : "obj-120",
					"maxclass" : "newobj",
					"numinlets" : 3,
					"numoutlets" : 0,
					"patching_rect" : [ 223.5, 581.0, 51.0, 22.0 ],
					"style" : "",
					"text" : "noteout"
				}

			}
, 			{
				"box" : 				{
					"id" : "obj-121",
					"maxclass" : "newobj",
					"numinlets" : 3,
					"numoutlets" : 3,
					"outlettype" : [ "bang", "bang", "" ],
					"patching_rect" : [ 238.0, 448.0, 46.0, 22.0 ],
					"style" : "",
					"text" : "sel 0 1"
				}

			}
, 			{
				"box" : 				{
					"id" : "obj-122",
					"maxclass" : "message",
					"numinlets" : 2,
					"numoutlets" : 1,
					"outlettype" : [ "" ],
					"patching_rect" : [ 244.0, 661.0, 29.5, 22.0 ],
					"style" : "",
					"text" : "0"
				}

			}
, 			{
				"box" : 				{
					"id" : "obj-123",
					"maxclass" : "message",
					"numinlets" : 2,
					"numoutlets" : 1,
					"outlettype" : [ "" ],
					"patching_rect" : [ 390.5, 479.0, 31.0, 22.0 ],
					"style" : "",
					"text" : "127"
				}

			}
, 			{
				"box" : 				{
					"id" : "obj-124",
					"maxclass" : "newobj",
					"numinlets" : 3,
					"numoutlets" : 0,
					"patching_rect" : [ 385.0, 581.0, 51.0, 22.0 ],
					"style" : "",
					"text" : "noteout"
				}

			}
, 			{
				"box" : 				{
					"id" : "obj-125",
					"maxclass" : "newobj",
					"numinlets" : 3,
					"numoutlets" : 0,
					"patching_rect" : [ 331.5, 581.0, 51.0, 22.0 ],
					"style" : "",
					"text" : "noteout"
				}

			}
, 			{
				"box" : 				{
					"id" : "obj-126",
					"maxclass" : "newobj",
					"numinlets" : 3,
					"numoutlets" : 0,
					"patching_rect" : [ 278.75, 581.0, 51.0, 22.0 ],
					"style" : "",
					"text" : "noteout"
				}

			}
, 			{
				"box" : 				{
					"id" : "obj-127",
					"maxclass" : "newobj",
					"numinlets" : 2,
					"numoutlets" : 1,
					"outlettype" : [ "int" ],
					"patching_rect" : [ 348.5, 479.0, 34.0, 22.0 ],
					"style" : "",
					"text" : "+ 12"
				}

			}
, 			{
				"box" : 				{
					"id" : "obj-128",
					"maxclass" : "newobj",
					"numinlets" : 2,
					"numoutlets" : 1,
					"outlettype" : [ "int" ],
					"patching_rect" : [ 312.5, 479.0, 29.5, 22.0 ],
					"style" : "",
					"text" : "+ 7"
				}

			}
, 			{
				"box" : 				{
					"id" : "obj-129",
					"maxclass" : "newobj",
					"numinlets" : 2,
					"numoutlets" : 1,
					"outlettype" : [ "int" ],
					"patching_rect" : [ 278.75, 479.0, 29.5, 22.0 ],
					"style" : "",
					"text" : "+ 4"
				}

			}
, 			{
				"box" : 				{
					"id" : "obj-130",
					"maxclass" : "number",
					"numinlets" : 1,
					"numoutlets" : 2,
					"outlettype" : [ "", "bang" ],
					"parameter_enable" : 0,
					"patching_rect" : [ 223.5, 479.0, 50.0, 22.0 ],
					"style" : ""
				}

			}
, 			{
				"box" : 				{
					"fontname" : "Arial",
					"fontsize" : 12.0,
					"id" : "obj-131",
					"maxclass" : "number",
					"numinlets" : 1,
					"numoutlets" : 2,
					"outlettype" : [ "", "bang" ],
					"parameter_enable" : 0,
					"patching_rect" : [ 283.0, 674.0, 50.0, 22.0 ],
					"style" : ""
				}

			}
, 			{
				"box" : 				{
					"fontname" : "Arial",
					"fontsize" : 12.0,
					"id" : "obj-132",
					"maxclass" : "newobj",
					"numinlets" : 2,
					"numoutlets" : 1,
					"outlettype" : [ "int" ],
					"patching_rect" : [ 284.5, 648.0, 32.5, 22.0 ],
					"style" : "",
					"text" : "+ 1"
				}

			}
, 			{
				"box" : 				{
					"allowdrag" : 0,
					"id" : "obj-133",
					"items" : [ "Acoustic", "Grand", "Piano", ",", "Bright", "Acoustic", "Piano", ",", "Electric", "Grand", "Piano", ",", "Honky-Tonk", "Piano", ",", "Electric", "Piano", 1, ",", "Electric", "Piano", 2, ",", "Harpsichord", ",", "Clavinet", ",", "Celesta", ",", "Glockenspiel", ",", "Music", "Box", ",", "Vibraphone", ",", "Marimba", ",", "Xylophone", ",", "Tubular", "Bells", ",", "Dulcimer", ",", "Drawbar", "Organ", ",", "Percussive", "Organ", ",", "Rock", "Organ", ",", "Church", "Organ", ",", "Reed", "Organ", ",", "Accordion", ",", "Harmonica", ",", "Tango", "Accordion", ",", "Nylon", "Acoustic", "Guitar", ",", "Steel", "Acoustic", "Guitar", ",", "Jazz", "Acoustic", "Guitar", ",", "Clean", "Electric", "Guitar", ",", "Muted", "Electric", "Guitar", ",", "Overdriven", "Guitar", ",", "Distortion", "Guitar", ",", "Guitar", "Harmonics", ",", "Acoustic", "Bass", ",", "Fingered", "Electric", "Bass", ",", "Picked", "Electric", "Bass", ",", "Fretless", "Bass", ",", "Slap", "Bass", 1, ",", "Slap", "Bass", 2, ",", "Synth", "Bass", 1, ",", "Synth", "Bass", 2, ",", "Violin", ",", "Viola", ",", "Cello", ",", "Contrabass", ",", "Tremolo", "Strings", ",", "Pizzicato", "Strings", ",", "Orchestral", "Harp", ",", "Timpani", ",", "String", "Ensemble", 1, ",", "String", "Ensemble", 2, ",", "Synth", "Strings", 1, ",", "Synth", "Strings", 2, ",", "Choir", "Aahs", ",", "Voice", "Oohs", ",", "Synth", "Voice", ",", "Orchestra", "Hit", ",", "Trumpet", ",", "Trombone", ",", "Tuba", ",", "Muted", "Trumpet", ",", "French", "Horn", ",", "Brass", "Section", ",", "Synth", "Brass", 1, ",", "Synth", "Brass", 2, ",", "Soprano", "Sax", ",", "Alto", "Sax", ",", "Tenor", "Sax", ",", "Baritone", "Sax", ",", "Oboe", ",", "English", "Horn", ",", "Bassoon", ",", "Clarinet", ",", "Piccolo", ",", "Flute", ",", "Recorder", ",", "Pan", "Flute", ",", "Blown", "Bottle", ",", "Shakuhachi", ",", "Whistle", ",", "Ocarina", ",", "Square", ",", "Sawtooth", ",", "Calliope", ",", "Chiff", ",", "Charang", ",", "Voice", ",", "Fifths", ",", "Bass", "&", "Lead", ",", "New", "Age", ",", "Warm", ",", "Polysynth", ",", "Choir", ",", "Bowed", ",", "Metallic", ",", "Halo", ",", "Sweep", ",", "Rain", ",", "Soundtrack", ",", "Crystal", ",", "Atmosphere", ",", "Brightness", ",", "Goblins", ",", "Echoes", ",", "Sci-Fi", ",", "Sitar", ",", "Banjo", ",", "Shamisen", ",", "Koto", ",", "Kalimba", ",", "Bag", "Pipe", ",", "Fiddle", ",", "Shanai", ",", "Tinkle", "Bell", ",", "Agogo", ",", "Steel", "Drums", ",", "Woodblock", ",", "Taiko", "Drum", ",", "Melodic", "Tom", ",", "Synth", "Drum", ",", "Reverse", "Cymbal", ",", "Guitar", "Fret", "Noise", ",", "Breath", "Noise", ",", "Seashore", ",", "Bird", "Tweet", ",", "Telephone", "Ring", ",", "Helicopter", ",", "Applause", ",", "Gunshot" ],
					"maxclass" : "umenu",
					"numinlets" : 1,
					"numoutlets" : 3,
					"outlettype" : [ "int", "", "" ],
					"parameter_enable" : 0,
					"patching_rect" : [ 283.0, 630.0, 165.0, 22.0 ],
					"style" : ""
				}

			}
, 			{
				"box" : 				{
					"fontname" : "Arial",
					"fontsize" : 12.0,
					"id" : "obj-134",
					"maxclass" : "newobj",
					"numinlets" : 2,
					"numoutlets" : 0,
					"patching_rect" : [ 283.0, 696.0, 51.0, 22.0 ],
					"style" : "",
					"text" : "pgmout"
				}

			}
, 			{
				"box" : 				{
					"id" : "obj-112",
					"maxclass" : "newobj",
					"numinlets" : 1,
					"numoutlets" : 3,
					"outlettype" : [ "", "int", "int" ],
					"patching_rect" : [ 17.0, 413.0, 50.0, 22.0 ],
					"style" : "",
					"text" : "change"
				}

			}
, 			{
				"box" : 				{
					"id" : "obj-111",
					"maxclass" : "newobj",
					"numinlets" : 3,
					"numoutlets" : 0,
					"patching_rect" : [ 2.5, 576.0, 51.0, 22.0 ],
					"style" : "",
					"text" : "noteout"
				}

			}
, 			{
				"box" : 				{
					"id" : "obj-110",
					"maxclass" : "newobj",
					"numinlets" : 3,
					"numoutlets" : 3,
					"outlettype" : [ "bang", "bang", "" ],
					"patching_rect" : [ 17.0, 443.0, 46.0, 22.0 ],
					"style" : "",
					"text" : "sel 0 1"
				}

			}
, 			{
				"box" : 				{
					"id" : "obj-109",
					"maxclass" : "message",
					"numinlets" : 2,
					"numoutlets" : 1,
					"outlettype" : [ "" ],
					"patching_rect" : [ 23.0, 656.0, 29.5, 22.0 ],
					"style" : "",
					"text" : "0"
				}

			}
, 			{
				"box" : 				{
					"id" : "obj-107",
					"maxclass" : "message",
					"numinlets" : 2,
					"numoutlets" : 1,
					"outlettype" : [ "" ],
					"patching_rect" : [ 169.5, 474.0, 31.0, 22.0 ],
					"style" : "",
					"text" : "127"
				}

			}
, 			{
				"box" : 				{
					"id" : "obj-104",
					"maxclass" : "newobj",
					"numinlets" : 3,
					"numoutlets" : 0,
					"patching_rect" : [ 164.0, 576.0, 51.0, 22.0 ],
					"style" : "",
					"text" : "noteout"
				}

			}
, 			{
				"box" : 				{
					"id" : "obj-103",
					"maxclass" : "newobj",
					"numinlets" : 3,
					"numoutlets" : 0,
					"patching_rect" : [ 110.5, 576.0, 51.0, 22.0 ],
					"style" : "",
					"text" : "noteout"
				}

			}
, 			{
				"box" : 				{
					"id" : "obj-102",
					"maxclass" : "newobj",
					"numinlets" : 3,
					"numoutlets" : 0,
					"patching_rect" : [ 57.75, 576.0, 51.0, 22.0 ],
					"style" : "",
					"text" : "noteout"
				}

			}
, 			{
				"box" : 				{
					"id" : "obj-94",
					"maxclass" : "number",
					"numinlets" : 1,
					"numoutlets" : 2,
					"outlettype" : [ "", "bang" ],
					"parameter_enable" : 0,
					"patching_rect" : [ 17.0, 384.0, 50.0, 22.0 ],
					"style" : ""
				}

			}
, 			{
				"box" : 				{
					"id" : "obj-81",
					"maxclass" : "newobj",
					"numinlets" : 2,
					"numoutlets" : 1,
					"outlettype" : [ "int" ],
					"patching_rect" : [ 127.5, 474.0, 34.0, 22.0 ],
					"style" : "",
					"text" : "+ 12"
				}

			}
, 			{
				"box" : 				{
					"id" : "obj-80",
					"maxclass" : "newobj",
					"numinlets" : 2,
					"numoutlets" : 1,
					"outlettype" : [ "int" ],
					"patching_rect" : [ 91.5, 474.0, 29.5, 22.0 ],
					"style" : "",
					"text" : "+ 7"
				}

			}
, 			{
				"box" : 				{
					"id" : "obj-79",
					"maxclass" : "newobj",
					"numinlets" : 2,
					"numoutlets" : 1,
					"outlettype" : [ "int" ],
					"patching_rect" : [ 57.75, 474.0, 29.5, 22.0 ],
					"style" : "",
					"text" : "+ 4"
				}

			}
, 			{
				"box" : 				{
					"id" : "obj-78",
					"maxclass" : "number",
					"numinlets" : 1,
					"numoutlets" : 2,
					"outlettype" : [ "", "bang" ],
					"parameter_enable" : 0,
					"patching_rect" : [ 2.5, 474.0, 50.0, 22.0 ],
					"style" : ""
				}

			}
, 			{
				"box" : 				{
					"id" : "obj-74",
					"maxclass" : "newobj",
					"numinlets" : 3,
					"numoutlets" : 0,
					"patching_rect" : [ 365.0, 922.0, 51.0, 22.0 ],
					"style" : "",
					"text" : "noteout"
				}

			}
, 			{
				"box" : 				{
					"id" : "obj-73",
					"maxclass" : "number",
					"numinlets" : 1,
					"numoutlets" : 2,
					"outlettype" : [ "", "bang" ],
					"parameter_enable" : 0,
					"patching_rect" : [ 365.0, 887.0, 50.0, 22.0 ],
					"style" : ""
				}

			}
, 			{
				"box" : 				{
					"id" : "obj-70",
					"maxclass" : "kslider",
					"numinlets" : 2,
					"numoutlets" : 2,
					"outlettype" : [ "int", "int" ],
					"parameter_enable" : 0,
					"patching_rect" : [ 263.0, 800.0, 336.0, 53.0 ],
					"presentation_rect" : [ 0.0, 0.0, 336.0, 53.0 ],
					"style" : ""
				}

			}
, 			{
				"box" : 				{
					"id" : "obj-67",
					"maxclass" : "comment",
					"numinlets" : 1,
					"numoutlets" : 0,
					"patching_rect" : [ 340.0, 71.0, 150.0, 20.0 ],
					"style" : "",
					"text" : "G Em A7 D C Am7"
				}

			}
, 			{
				"box" : 				{
					"id" : "obj-62",
					"maxclass" : "newobj",
					"numinlets" : 1,
					"numoutlets" : 2,
					"outlettype" : [ "float", "int" ],
					"patching_rect" : [ 920.0, 859.0, 41.0, 22.0 ],
					"style" : "",
					"text" : "mean"
				}

			}
, 			{
				"box" : 				{
					"id" : "obj-60",
					"maxclass" : "number",
					"numinlets" : 1,
					"numoutlets" : 2,
					"outlettype" : [ "", "bang" ],
					"parameter_enable" : 0,
					"patching_rect" : [ 920.0, 901.0, 50.0, 22.0 ],
					"style" : ""
				}

			}
, 			{
				"box" : 				{
					"id" : "obj-57",
					"maxclass" : "newobj",
					"numinlets" : 2,
					"numoutlets" : 2,
					"outlettype" : [ "", "" ],
					"patching_rect" : [ 920.0, 829.0, 63.0, 22.0 ],
					"style" : "",
					"text" : "zl group 5"
				}

			}
, 			{
				"box" : 				{
					"id" : "obj-56",
					"maxclass" : "message",
					"numinlets" : 2,
					"numoutlets" : 1,
					"outlettype" : [ "" ],
					"patching_rect" : [ 75.0, 873.0, 30.25, 22.0 ],
					"style" : "",
					"text" : "667"
				}

			}
, 			{
				"box" : 				{
					"id" : "obj-54",
					"maxclass" : "number",
					"numinlets" : 1,
					"numoutlets" : 2,
					"outlettype" : [ "", "bang" ],
					"parameter_enable" : 0,
					"patching_rect" : [ 119.5, 800.0, 50.0, 22.0 ],
					"style" : ""
				}

			}
, 			{
				"box" : 				{
					"id" : "obj-48",
					"maxclass" : "newobj",
					"numinlets" : 6,
					"numoutlets" : 1,
					"outlettype" : [ "" ],
					"patching_rect" : [ 119.5, 829.0, 125.0, 22.0 ],
					"style" : "",
					"text" : "scale 0 100 100 1000"
				}

			}
, 			{
				"box" : 				{
					"id" : "obj-44",
					"maxclass" : "newobj",
					"numinlets" : 1,
					"numoutlets" : 0,
					"patching_rect" : [ 830.0, 904.0, 47.0, 22.0 ],
					"style" : "",
					"text" : "s bang"
				}

			}
, 			{
				"box" : 				{
					"id" : "obj-42",
					"maxclass" : "newobj",
					"numinlets" : 2,
					"numoutlets" : 2,
					"outlettype" : [ "bang", "" ],
					"patching_rect" : [ 822.0, 858.0, 36.0, 22.0 ],
					"style" : "",
					"text" : "sel 1"
				}

			}
, 			{
				"box" : 				{
					"id" : "obj-40",
					"maxclass" : "newobj",
					"numinlets" : 2,
					"numoutlets" : 1,
					"outlettype" : [ "int" ],
					"patching_rect" : [ 816.0, 820.0, 34.0, 22.0 ],
					"style" : "",
					"text" : "> 10"
				}

			}
, 			{
				"box" : 				{
					"fontname" : "Arial",
					"fontsize" : 12.0,
					"id" : "obj-28",
					"maxclass" : "number",
					"numinlets" : 1,
					"numoutlets" : 2,
					"outlettype" : [ "", "bang" ],
					"parameter_enable" : 0,
					"patching_rect" : [ 62.0, 669.0, 50.0, 22.0 ],
					"style" : ""
				}

			}
, 			{
				"box" : 				{
					"fontname" : "Arial",
					"fontsize" : 12.0,
					"id" : "obj-30",
					"maxclass" : "newobj",
					"numinlets" : 2,
					"numoutlets" : 1,
					"outlettype" : [ "int" ],
					"patching_rect" : [ 63.5, 643.0, 32.5, 22.0 ],
					"style" : "",
					"text" : "+ 1"
				}

			}
, 			{
				"box" : 				{
					"allowdrag" : 0,
					"id" : "obj-29",
					"items" : [ "Acoustic", "Grand", "Piano", ",", "Bright", "Acoustic", "Piano", ",", "Electric", "Grand", "Piano", ",", "Honky-Tonk", "Piano", ",", "Electric", "Piano", 1, ",", "Electric", "Piano", 2, ",", "Harpsichord", ",", "Clavinet", ",", "Celesta", ",", "Glockenspiel", ",", "Music", "Box", ",", "Vibraphone", ",", "Marimba", ",", "Xylophone", ",", "Tubular", "Bells", ",", "Dulcimer", ",", "Drawbar", "Organ", ",", "Percussive", "Organ", ",", "Rock", "Organ", ",", "Church", "Organ", ",", "Reed", "Organ", ",", "Accordion", ",", "Harmonica", ",", "Tango", "Accordion", ",", "Nylon", "Acoustic", "Guitar", ",", "Steel", "Acoustic", "Guitar", ",", "Jazz", "Acoustic", "Guitar", ",", "Clean", "Electric", "Guitar", ",", "Muted", "Electric", "Guitar", ",", "Overdriven", "Guitar", ",", "Distortion", "Guitar", ",", "Guitar", "Harmonics", ",", "Acoustic", "Bass", ",", "Fingered", "Electric", "Bass", ",", "Picked", "Electric", "Bass", ",", "Fretless", "Bass", ",", "Slap", "Bass", 1, ",", "Slap", "Bass", 2, ",", "Synth", "Bass", 1, ",", "Synth", "Bass", 2, ",", "Violin", ",", "Viola", ",", "Cello", ",", "Contrabass", ",", "Tremolo", "Strings", ",", "Pizzicato", "Strings", ",", "Orchestral", "Harp", ",", "Timpani", ",", "String", "Ensemble", 1, ",", "String", "Ensemble", 2, ",", "Synth", "Strings", 1, ",", "Synth", "Strings", 2, ",", "Choir", "Aahs", ",", "Voice", "Oohs", ",", "Synth", "Voice", ",", "Orchestra", "Hit", ",", "Trumpet", ",", "Trombone", ",", "Tuba", ",", "Muted", "Trumpet", ",", "French", "Horn", ",", "Brass", "Section", ",", "Synth", "Brass", 1, ",", "Synth", "Brass", 2, ",", "Soprano", "Sax", ",", "Alto", "Sax", ",", "Tenor", "Sax", ",", "Baritone", "Sax", ",", "Oboe", ",", "English", "Horn", ",", "Bassoon", ",", "Clarinet", ",", "Piccolo", ",", "Flute", ",", "Recorder", ",", "Pan", "Flute", ",", "Blown", "Bottle", ",", "Shakuhachi", ",", "Whistle", ",", "Ocarina", ",", "Square", ",", "Sawtooth", ",", "Calliope", ",", "Chiff", ",", "Charang", ",", "Voice", ",", "Fifths", ",", "Bass", "&", "Lead", ",", "New", "Age", ",", "Warm", ",", "Polysynth", ",", "Choir", ",", "Bowed", ",", "Metallic", ",", "Halo", ",", "Sweep", ",", "Rain", ",", "Soundtrack", ",", "Crystal", ",", "Atmosphere", ",", "Brightness", ",", "Goblins", ",", "Echoes", ",", "Sci-Fi", ",", "Sitar", ",", "Banjo", ",", "Shamisen", ",", "Koto", ",", "Kalimba", ",", "Bag", "Pipe", ",", "Fiddle", ",", "Shanai", ",", "Tinkle", "Bell", ",", "Agogo", ",", "Steel", "Drums", ",", "Woodblock", ",", "Taiko", "Drum", ",", "Melodic", "Tom", ",", "Synth", "Drum", ",", "Reverse", "Cymbal", ",", "Guitar", "Fret", "Noise", ",", "Breath", "Noise", ",", "Seashore", ",", "Bird", "Tweet", ",", "Telephone", "Ring", ",", "Helicopter", ",", "Applause", ",", "Gunshot" ],
					"maxclass" : "umenu",
					"numinlets" : 1,
					"numoutlets" : 3,
					"outlettype" : [ "int", "", "" ],
					"parameter_enable" : 0,
					"patching_rect" : [ 62.0, 625.0, 165.0, 22.0 ],
					"style" : ""
				}

			}
, 			{
				"box" : 				{
					"fontname" : "Arial",
					"fontsize" : 12.0,
					"id" : "obj-31",
					"maxclass" : "newobj",
					"numinlets" : 2,
					"numoutlets" : 0,
					"patching_rect" : [ 62.0, 691.0, 51.0, 22.0 ],
					"style" : "",
					"text" : "pgmout"
				}

			}
, 			{
				"box" : 				{
					"id" : "obj-75",
					"maxclass" : "newobj",
					"numinlets" : 1,
					"numoutlets" : 3,
					"outlettype" : [ "", "int", "int" ],
					"patching_rect" : [ 44.5, 800.0, 50.0, 22.0 ],
					"style" : "",
					"text" : "change"
				}

			}
, 			{
				"box" : 				{
					"id" : "obj-71",
					"maxclass" : "message",
					"numinlets" : 2,
					"numoutlets" : 1,
					"outlettype" : [ "" ],
					"patching_rect" : [ 109.0, 873.0, 29.5, 22.0 ],
					"style" : "",
					"text" : "667"
				}

			}
, 			{
				"box" : 				{
					"id" : "obj-69",
					"maxclass" : "message",
					"numinlets" : 2,
					"numoutlets" : 1,
					"outlettype" : [ "" ],
					"patching_rect" : [ 44.5, 873.0, 29.5, 22.0 ],
					"style" : "",
					"text" : "52"
				}

			}
, 			{
				"box" : 				{
					"id" : "obj-66",
					"maxclass" : "newobj",
					"numinlets" : 3,
					"numoutlets" : 2,
					"outlettype" : [ "float", "float" ],
					"patching_rect" : [ 44.5, 917.0, 80.0, 22.0 ],
					"style" : "",
					"text" : "makenote 52"
				}

			}
, 			{
				"box" : 				{
					"id" : "obj-61",
					"maxclass" : "comment",
					"numinlets" : 1,
					"numoutlets" : 0,
					"patching_rect" : [ 522.0, 44.5, 150.0, 20.0 ],
					"style" : "",
					"text" : "E2, A2, D3, G3, B3, E4"
				}

			}
, 			{
				"box" : 				{
					"id" : "obj-59",
					"maxclass" : "newobj",
					"numinlets" : 0,
					"numoutlets" : 1,
					"outlettype" : [ "" ],
					"patching_rect" : [ 856.0, 282.0, 43.0, 22.0 ],
					"style" : "",
					"text" : "r pitch"
				}

			}
, 			{
				"box" : 				{
					"id" : "obj-51",
					"maxclass" : "comment",
					"numinlets" : 1,
					"numoutlets" : 0,
					"patching_rect" : [ 833.0, 335.0, 150.0, 20.0 ],
					"style" : "",
					"text" : "gesture sensor"
				}

			}
, 			{
				"box" : 				{
					"id" : "obj-47",
					"maxclass" : "number",
					"numinlets" : 1,
					"numoutlets" : 2,
					"outlettype" : [ "", "bang" ],
					"parameter_enable" : 0,
					"patching_rect" : [ 917.0, 382.0, 50.0, 22.0 ],
					"style" : ""
				}

			}
, 			{
				"box" : 				{
					"id" : "obj-45",
					"maxclass" : "number",
					"numinlets" : 1,
					"numoutlets" : 2,
					"outlettype" : [ "", "bang" ],
					"parameter_enable" : 0,
					"patching_rect" : [ 856.0, 382.0, 50.0, 22.0 ],
					"style" : ""
				}

			}
, 			{
				"box" : 				{
					"id" : "obj-43",
					"maxclass" : "number",
					"numinlets" : 1,
					"numoutlets" : 2,
					"outlettype" : [ "", "bang" ],
					"parameter_enable" : 0,
					"patching_rect" : [ 795.0, 382.0, 50.0, 22.0 ],
					"style" : ""
				}

			}
, 			{
				"box" : 				{
					"id" : "obj-41",
					"maxclass" : "number",
					"numinlets" : 1,
					"numoutlets" : 2,
					"outlettype" : [ "", "bang" ],
					"parameter_enable" : 0,
					"patching_rect" : [ 729.0, 383.0, 50.0, 22.0 ],
					"style" : ""
				}

			}
, 			{
				"box" : 				{
					"id" : "obj-39",
					"maxclass" : "number",
					"numinlets" : 1,
					"numoutlets" : 2,
					"outlettype" : [ "", "bang" ],
					"parameter_enable" : 0,
					"patching_rect" : [ 666.0, 383.0, 50.0, 22.0 ],
					"style" : ""
				}

			}
, 			{
				"box" : 				{
					"id" : "obj-36",
					"maxclass" : "number",
					"numinlets" : 1,
					"numoutlets" : 2,
					"outlettype" : [ "", "bang" ],
					"parameter_enable" : 0,
					"patching_rect" : [ 610.0, 383.0, 50.0, 22.0 ],
					"style" : ""
				}

			}
, 			{
				"box" : 				{
					"id" : "obj-21",
					"maxclass" : "number",
					"numinlets" : 1,
					"numoutlets" : 2,
					"outlettype" : [ "", "bang" ],
					"parameter_enable" : 0,
					"patching_rect" : [ 543.0, 383.0, 50.0, 22.0 ],
					"style" : ""
				}

			}
, 			{
				"box" : 				{
					"id" : "obj-19",
					"maxclass" : "number",
					"numinlets" : 1,
					"numoutlets" : 2,
					"outlettype" : [ "", "bang" ],
					"parameter_enable" : 0,
					"patching_rect" : [ 485.0, 384.0, 50.0, 22.0 ],
					"style" : ""
				}

			}
, 			{
				"box" : 				{
					"id" : "obj-13",
					"maxclass" : "number",
					"numinlets" : 1,
					"numoutlets" : 2,
					"outlettype" : [ "", "bang" ],
					"parameter_enable" : 0,
					"patching_rect" : [ 412.0, 384.0, 50.0, 22.0 ],
					"style" : ""
				}

			}
, 			{
				"box" : 				{
					"id" : "obj-11",
					"maxclass" : "number",
					"numinlets" : 1,
					"numoutlets" : 2,
					"outlettype" : [ "", "bang" ],
					"parameter_enable" : 0,
					"patching_rect" : [ 357.0, 384.0, 50.0, 22.0 ],
					"style" : ""
				}

			}
, 			{
				"box" : 				{
					"fontname" : "Arial",
					"fontsize" : 12.0,
					"id" : "obj-37",
					"maxclass" : "comment",
					"numinlets" : 1,
					"numoutlets" : 0,
					"patching_rect" : [ 164.0, 39.0, 150.0, 20.0 ],
					"style" : "",
					"text" : "Serial on/off"
				}

			}
, 			{
				"box" : 				{
					"fontname" : "Arial",
					"fontsize" : 12.0,
					"id" : "obj-27",
					"maxclass" : "comment",
					"numinlets" : 1,
					"numoutlets" : 0,
					"patching_rect" : [ 125.0, 384.0, 90.0, 20.0 ],
					"style" : "",
					"text" : "red"
				}

			}
, 			{
				"box" : 				{
					"fontname" : "Arial",
					"fontsize" : 12.0,
					"id" : "obj-34",
					"maxclass" : "number",
					"numinlets" : 1,
					"numoutlets" : 2,
					"outlettype" : [ "", "bang" ],
					"parameter_enable" : 0,
					"patching_rect" : [ 71.0, 384.0, 50.0, 22.0 ],
					"style" : ""
				}

			}
, 			{
				"box" : 				{
					"fontname" : "Arial",
					"fontsize" : 12.0,
					"id" : "obj-17",
					"maxclass" : "comment",
					"numinlets" : 1,
					"numoutlets" : 0,
					"patching_rect" : [ 350.0, 299.0, 276.0, 20.0 ],
					"style" : "",
					"text" : "unpack our list of 4 data bytes"
				}

			}
, 			{
				"box" : 				{
					"fontname" : "Arial",
					"fontsize" : 12.0,
					"id" : "obj-16",
					"maxclass" : "comment",
					"numinlets" : 1,
					"numoutlets" : 0,
					"patching_rect" : [ 202.0, 268.0, 276.0, 20.0 ],
					"style" : "",
					"text" : "bang at inlet dumps list"
				}

			}
, 			{
				"box" : 				{
					"fontname" : "Arial",
					"fontsize" : 12.0,
					"id" : "obj-15",
					"maxclass" : "comment",
					"numinlets" : 1,
					"numoutlets" : 0,
					"patching_rect" : [ 202.0, 249.0, 276.0, 20.0 ],
					"style" : "",
					"text" : "assemble messages into a list (max 20 elements)"
				}

			}
, 			{
				"box" : 				{
					"fontname" : "Arial",
					"fontsize" : 12.0,
					"id" : "obj-14",
					"maxclass" : "comment",
					"numinlets" : 1,
					"numoutlets" : 0,
					"patching_rect" : [ 181.0, 199.0, 593.0, 20.0 ],
					"style" : "",
					"text" : "look for separator byte. if received, send bang. other message (our data bytes) pass through the right outlet."
				}

			}
, 			{
				"box" : 				{
					"fontname" : "Arial",
					"fontsize" : 12.0,
					"id" : "obj-7",
					"maxclass" : "message",
					"numinlets" : 2,
					"numoutlets" : 1,
					"outlettype" : [ "" ],
					"patching_rect" : [ 244.0, 134.0, 34.0, 22.0 ],
					"style" : "",
					"text" : "print"
				}

			}
, 			{
				"box" : 				{
					"fontname" : "Arial",
					"fontsize" : 12.0,
					"id" : "obj-3",
					"maxclass" : "comment",
					"numinlets" : 1,
					"numoutlets" : 0,
					"patching_rect" : [ 285.0, 132.0, 364.0, 20.0 ],
					"style" : "",
					"text" : "use print message to display serial port names in Max window"
				}

			}
, 			{
				"box" : 				{
					"fontname" : "Arial",
					"fontsize" : 12.0,
					"id" : "obj-52",
					"maxclass" : "comment",
					"numinlets" : 1,
					"numoutlets" : 0,
					"patching_rect" : [ 283.0, 108.0, 364.0, 20.0 ],
					"style" : "",
					"text" : "may need to change port c to match your serial port name"
				}

			}
, 			{
				"box" : 				{
					"fontname" : "Arial",
					"fontsize" : 12.0,
					"id" : "obj-49",
					"maxclass" : "number",
					"numinlets" : 1,
					"numoutlets" : 2,
					"outlettype" : [ "", "bang" ],
					"parameter_enable" : 0,
					"patching_rect" : [ 285.0, 384.0, 50.0, 22.0 ],
					"style" : ""
				}

			}
, 			{
				"box" : 				{
					"fontname" : "Arial",
					"fontsize" : 12.0,
					"id" : "obj-50",
					"maxclass" : "number",
					"numinlets" : 1,
					"numoutlets" : 2,
					"outlettype" : [ "", "bang" ],
					"parameter_enable" : 0,
					"patching_rect" : [ 228.0, 384.0, 50.0, 22.0 ],
					"style" : ""
				}

			}
, 			{
				"box" : 				{
					"fontname" : "Arial",
					"fontsize" : 12.0,
					"id" : "obj-33",
					"maxclass" : "newobj",
					"numinlets" : 2,
					"numoutlets" : 2,
					"outlettype" : [ "bang", "" ],
					"patching_rect" : [ 127.0, 200.0, 49.0, 22.0 ],
					"style" : "",
					"text" : "sel 255"
				}

			}
, 			{
				"box" : 				{
					"fontname" : "Arial",
					"fontsize" : 12.0,
					"id" : "obj-25",
					"maxclass" : "newobj",
					"numinlets" : 2,
					"numoutlets" : 2,
					"outlettype" : [ "", "" ],
					"patching_rect" : [ 127.0, 249.0, 83.0, 22.0 ],
					"style" : "",
					"text" : "zl group 1000"
				}

			}
, 			{
				"box" : 				{
					"fontname" : "Arial",
					"fontsize" : 12.0,
					"id" : "obj-4",
					"maxclass" : "newobj",
					"numinlets" : 1,
					"numoutlets" : 12,
					"outlettype" : [ "int", "int", "int", "int", "int", "int", "int", "int", "int", "int", "int", "int" ],
					"patching_rect" : [ 127.0, 299.0, 169.0, 22.0 ],
					"style" : "",
					"text" : "unpack 0 0 0 0 0 0 0 0 0 0 0 0"
				}

			}
, 			{
				"box" : 				{
					"fontname" : "Arial",
					"fontsize" : 12.0,
					"id" : "obj-9",
					"maxclass" : "message",
					"numinlets" : 2,
					"numoutlets" : 1,
					"outlettype" : [ "" ],
					"patching_rect" : [ 238.0, 109.0, 41.0, 22.0 ],
					"style" : "",
					"text" : "port b"
				}

			}
, 			{
				"box" : 				{
					"fontname" : "Arial",
					"fontsize" : 12.0,
					"id" : "obj-8",
					"maxclass" : "newobj",
					"numinlets" : 2,
					"numoutlets" : 2,
					"outlettype" : [ "bang", "" ],
					"patching_rect" : [ 193.0, 78.0, 36.0, 22.0 ],
					"style" : "",
					"text" : "sel 0"
				}

			}
, 			{
				"box" : 				{
					"fontname" : "Arial",
					"fontsize" : 12.0,
					"id" : "obj-5",
					"maxclass" : "message",
					"numinlets" : 2,
					"numoutlets" : 1,
					"outlettype" : [ "" ],
					"patching_rect" : [ 193.0, 108.0, 41.0, 22.0 ],
					"style" : "",
					"text" : "port b"
				}

			}
, 			{
				"box" : 				{
					"fontname" : "Arial",
					"fontsize" : 12.0,
					"id" : "obj-6",
					"maxclass" : "newobj",
					"numinlets" : 2,
					"numoutlets" : 1,
					"outlettype" : [ "bang" ],
					"patching_rect" : [ 127.0, 110.0, 58.0, 22.0 ],
					"style" : "",
					"text" : "metro 10"
				}

			}
, 			{
				"box" : 				{
					"id" : "obj-2",
					"maxclass" : "toggle",
					"numinlets" : 1,
					"numoutlets" : 1,
					"outlettype" : [ "int" ],
					"parameter_enable" : 0,
					"patching_rect" : [ 127.0, 39.0, 35.0, 35.0 ],
					"style" : ""
				}

			}
, 			{
				"box" : 				{
					"fontname" : "Arial",
					"fontsize" : 12.0,
					"id" : "obj-1",
					"maxclass" : "newobj",
					"numinlets" : 1,
					"numoutlets" : 2,
					"outlettype" : [ "int", "" ],
					"patching_rect" : [ 127.0, 159.0, 79.0, 22.0 ],
					"style" : "",
					"text" : "serial b 9600"
				}

			}
 ],
		"lines" : [ 			{
				"patchline" : 				{
					"destination" : [ "obj-33", 0 ],
					"source" : [ "obj-1", 0 ]
				}

			}
, 			{
				"patchline" : 				{
					"destination" : [ "obj-102", 1 ],
					"order" : 2,
					"source" : [ "obj-107", 0 ]
				}

			}
, 			{
				"patchline" : 				{
					"destination" : [ "obj-103", 1 ],
					"order" : 1,
					"source" : [ "obj-107", 0 ]
				}

			}
, 			{
				"patchline" : 				{
					"destination" : [ "obj-104", 1 ],
					"order" : 0,
					"source" : [ "obj-107", 0 ]
				}

			}
, 			{
				"patchline" : 				{
					"destination" : [ "obj-111", 1 ],
					"order" : 3,
					"source" : [ "obj-107", 0 ]
				}

			}
, 			{
				"patchline" : 				{
					"destination" : [ "obj-102", 1 ],
					"order" : 2,
					"source" : [ "obj-109", 0 ]
				}

			}
, 			{
				"patchline" : 				{
					"destination" : [ "obj-103", 1 ],
					"order" : 1,
					"source" : [ "obj-109", 0 ]
				}

			}
, 			{
				"patchline" : 				{
					"destination" : [ "obj-104", 1 ],
					"order" : 0,
					"source" : [ "obj-109", 0 ]
				}

			}
, 			{
				"patchline" : 				{
					"destination" : [ "obj-111", 1 ],
					"order" : 3,
					"source" : [ "obj-109", 0 ]
				}

			}
, 			{
				"patchline" : 				{
					"destination" : [ "obj-135", 0 ],
					"source" : [ "obj-11", 0 ]
				}

			}
, 			{
				"patchline" : 				{
					"destination" : [ "obj-107", 0 ],
					"order" : 0,
					"source" : [ "obj-110", 1 ]
				}

			}
, 			{
				"patchline" : 				{
					"destination" : [ "obj-109", 0 ],
					"order" : 0,
					"source" : [ "obj-110", 0 ]
				}

			}
, 			{
				"patchline" : 				{
					"destination" : [ "obj-78", 0 ],
					"order" : 1,
					"source" : [ "obj-110", 1 ]
				}

			}
, 			{
				"patchline" : 				{
					"destination" : [ "obj-78", 0 ],
					"order" : 1,
					"source" : [ "obj-110", 0 ]
				}

			}
, 			{
				"patchline" : 				{
					"destination" : [ "obj-110", 0 ],
					"source" : [ "obj-112", 0 ]
				}

			}
, 			{
				"patchline" : 				{
					"destination" : [ "obj-121", 0 ],
					"source" : [ "obj-119", 0 ]
				}

			}
, 			{
				"patchline" : 				{
					"destination" : [ "obj-122", 0 ],
					"order" : 0,
					"source" : [ "obj-121", 0 ]
				}

			}
, 			{
				"patchline" : 				{
					"destination" : [ "obj-123", 0 ],
					"order" : 0,
					"source" : [ "obj-121", 1 ]
				}

			}
, 			{
				"patchline" : 				{
					"destination" : [ "obj-130", 0 ],
					"order" : 1,
					"source" : [ "obj-121", 1 ]
				}

			}
, 			{
				"patchline" : 				{
					"destination" : [ "obj-130", 0 ],
					"order" : 1,
					"source" : [ "obj-121", 0 ]
				}

			}
, 			{
				"patchline" : 				{
					"destination" : [ "obj-120", 1 ],
					"order" : 3,
					"source" : [ "obj-122", 0 ]
				}

			}
, 			{
				"patchline" : 				{
					"destination" : [ "obj-124", 1 ],
					"order" : 0,
					"source" : [ "obj-122", 0 ]
				}

			}
, 			{
				"patchline" : 				{
					"destination" : [ "obj-125", 1 ],
					"order" : 1,
					"source" : [ "obj-122", 0 ]
				}

			}
, 			{
				"patchline" : 				{
					"destination" : [ "obj-126", 1 ],
					"order" : 2,
					"source" : [ "obj-122", 0 ]
				}

			}
, 			{
				"patchline" : 				{
					"destination" : [ "obj-120", 1 ],
					"order" : 3,
					"source" : [ "obj-123", 0 ]
				}

			}
, 			{
				"patchline" : 				{
					"destination" : [ "obj-124", 1 ],
					"order" : 0,
					"source" : [ "obj-123", 0 ]
				}

			}
, 			{
				"patchline" : 				{
					"destination" : [ "obj-125", 1 ],
					"order" : 1,
					"source" : [ "obj-123", 0 ]
				}

			}
, 			{
				"patchline" : 				{
					"destination" : [ "obj-126", 1 ],
					"order" : 2,
					"source" : [ "obj-123", 0 ]
				}

			}
, 			{
				"patchline" : 				{
					"destination" : [ "obj-124", 0 ],
					"source" : [ "obj-127", 0 ]
				}

			}
, 			{
				"patchline" : 				{
					"destination" : [ "obj-125", 0 ],
					"source" : [ "obj-128", 0 ]
				}

			}
, 			{
				"patchline" : 				{
					"destination" : [ "obj-126", 0 ],
					"source" : [ "obj-129", 0 ]
				}

			}
, 			{
				"patchline" : 				{
					"destination" : [ "obj-120", 0 ],
					"order" : 3,
					"source" : [ "obj-130", 0 ]
				}

			}
, 			{
				"patchline" : 				{
					"destination" : [ "obj-127", 0 ],
					"midpoints" : [ 233.0, 512.0, 344.0, 512.0, 344.0, 476.0, 358.0, 476.0 ],
					"order" : 0,
					"source" : [ "obj-130", 0 ]
				}

			}
, 			{
				"patchline" : 				{
					"destination" : [ "obj-128", 0 ],
					"midpoints" : [ 233.0, 512.0, 308.0, 512.0, 308.0, 476.0, 322.0, 476.0 ],
					"order" : 1,
					"source" : [ "obj-130", 0 ]
				}

			}
, 			{
				"patchline" : 				{
					"destination" : [ "obj-129", 0 ],
					"midpoints" : [ 233.0, 512.0, 275.0, 512.0, 275.0, 476.0, 288.25, 476.0 ],
					"order" : 2,
					"source" : [ "obj-130", 0 ]
				}

			}
, 			{
				"patchline" : 				{
					"destination" : [ "obj-134", 0 ],
					"source" : [ "obj-131", 0 ]
				}

			}
, 			{
				"patchline" : 				{
					"destination" : [ "obj-131", 0 ],
					"source" : [ "obj-132", 0 ]
				}

			}
, 			{
				"patchline" : 				{
					"destination" : [ "obj-132", 0 ],
					"source" : [ "obj-133", 0 ]
				}

			}
, 			{
				"patchline" : 				{
					"destination" : [ "obj-137", 0 ],
					"source" : [ "obj-135", 0 ]
				}

			}
, 			{
				"patchline" : 				{
					"destination" : [ "obj-138", 0 ],
					"order" : 0,
					"source" : [ "obj-137", 0 ]
				}

			}
, 			{
				"patchline" : 				{
					"destination" : [ "obj-139", 0 ],
					"order" : 0,
					"source" : [ "obj-137", 1 ]
				}

			}
, 			{
				"patchline" : 				{
					"destination" : [ "obj-146", 0 ],
					"order" : 1,
					"source" : [ "obj-137", 1 ]
				}

			}
, 			{
				"patchline" : 				{
					"destination" : [ "obj-146", 0 ],
					"order" : 1,
					"source" : [ "obj-137", 0 ]
				}

			}
, 			{
				"patchline" : 				{
					"destination" : [ "obj-136", 1 ],
					"order" : 3,
					"source" : [ "obj-138", 0 ]
				}

			}
, 			{
				"patchline" : 				{
					"destination" : [ "obj-140", 1 ],
					"order" : 0,
					"source" : [ "obj-138", 0 ]
				}

			}
, 			{
				"patchline" : 				{
					"destination" : [ "obj-141", 1 ],
					"order" : 1,
					"source" : [ "obj-138", 0 ]
				}

			}
, 			{
				"patchline" : 				{
					"destination" : [ "obj-142", 1 ],
					"order" : 2,
					"source" : [ "obj-138", 0 ]
				}

			}
, 			{
				"patchline" : 				{
					"destination" : [ "obj-136", 1 ],
					"order" : 3,
					"source" : [ "obj-139", 0 ]
				}

			}
, 			{
				"patchline" : 				{
					"destination" : [ "obj-140", 1 ],
					"order" : 0,
					"source" : [ "obj-139", 0 ]
				}

			}
, 			{
				"patchline" : 				{
					"destination" : [ "obj-141", 1 ],
					"order" : 1,
					"source" : [ "obj-139", 0 ]
				}

			}
, 			{
				"patchline" : 				{
					"destination" : [ "obj-142", 1 ],
					"order" : 2,
					"source" : [ "obj-139", 0 ]
				}

			}
, 			{
				"patchline" : 				{
					"destination" : [ "obj-140", 0 ],
					"source" : [ "obj-143", 0 ]
				}

			}
, 			{
				"patchline" : 				{
					"destination" : [ "obj-141", 0 ],
					"source" : [ "obj-144", 0 ]
				}

			}
, 			{
				"patchline" : 				{
					"destination" : [ "obj-142", 0 ],
					"source" : [ "obj-145", 0 ]
				}

			}
, 			{
				"patchline" : 				{
					"destination" : [ "obj-136", 0 ],
					"order" : 3,
					"source" : [ "obj-146", 0 ]
				}

			}
, 			{
				"patchline" : 				{
					"destination" : [ "obj-143", 0 ],
					"midpoints" : [ 433.0, 532.0, 544.0, 532.0, 544.0, 496.0, 558.0, 496.0 ],
					"order" : 0,
					"source" : [ "obj-146", 0 ]
				}

			}
, 			{
				"patchline" : 				{
					"destination" : [ "obj-144", 0 ],
					"midpoints" : [ 433.0, 532.0, 508.0, 532.0, 508.0, 496.0, 522.0, 496.0 ],
					"order" : 1,
					"source" : [ "obj-146", 0 ]
				}

			}
, 			{
				"patchline" : 				{
					"destination" : [ "obj-145", 0 ],
					"midpoints" : [ 433.0, 532.0, 475.0, 532.0, 475.0, 496.0, 488.25, 496.0 ],
					"order" : 2,
					"source" : [ "obj-146", 0 ]
				}

			}
, 			{
				"patchline" : 				{
					"destination" : [ "obj-150", 0 ],
					"source" : [ "obj-147", 0 ]
				}

			}
, 			{
				"patchline" : 				{
					"destination" : [ "obj-147", 0 ],
					"source" : [ "obj-148", 0 ]
				}

			}
, 			{
				"patchline" : 				{
					"destination" : [ "obj-148", 0 ],
					"source" : [ "obj-149", 0 ]
				}

			}
, 			{
				"patchline" : 				{
					"destination" : [ "obj-153", 0 ],
					"source" : [ "obj-151", 0 ]
				}

			}
, 			{
				"patchline" : 				{
					"destination" : [ "obj-154", 0 ],
					"order" : 0,
					"source" : [ "obj-153", 0 ]
				}

			}
, 			{
				"patchline" : 				{
					"destination" : [ "obj-155", 0 ],
					"order" : 0,
					"source" : [ "obj-153", 1 ]
				}

			}
, 			{
				"patchline" : 				{
					"destination" : [ "obj-162", 0 ],
					"order" : 1,
					"source" : [ "obj-153", 1 ]
				}

			}
, 			{
				"patchline" : 				{
					"destination" : [ "obj-162", 0 ],
					"order" : 1,
					"source" : [ "obj-153", 0 ]
				}

			}
, 			{
				"patchline" : 				{
					"destination" : [ "obj-152", 1 ],
					"order" : 3,
					"source" : [ "obj-154", 0 ]
				}

			}
, 			{
				"patchline" : 				{
					"destination" : [ "obj-156", 1 ],
					"order" : 0,
					"source" : [ "obj-154", 0 ]
				}

			}
, 			{
				"patchline" : 				{
					"destination" : [ "obj-157", 1 ],
					"order" : 1,
					"source" : [ "obj-154", 0 ]
				}

			}
, 			{
				"patchline" : 				{
					"destination" : [ "obj-158", 1 ],
					"order" : 2,
					"source" : [ "obj-154", 0 ]
				}

			}
, 			{
				"patchline" : 				{
					"destination" : [ "obj-152", 1 ],
					"order" : 3,
					"source" : [ "obj-155", 0 ]
				}

			}
, 			{
				"patchline" : 				{
					"destination" : [ "obj-156", 1 ],
					"order" : 0,
					"source" : [ "obj-155", 0 ]
				}

			}
, 			{
				"patchline" : 				{
					"destination" : [ "obj-157", 1 ],
					"order" : 1,
					"source" : [ "obj-155", 0 ]
				}

			}
, 			{
				"patchline" : 				{
					"destination" : [ "obj-158", 1 ],
					"order" : 2,
					"source" : [ "obj-155", 0 ]
				}

			}
, 			{
				"patchline" : 				{
					"destination" : [ "obj-156", 0 ],
					"source" : [ "obj-159", 0 ]
				}

			}
, 			{
				"patchline" : 				{
					"destination" : [ "obj-157", 0 ],
					"source" : [ "obj-160", 0 ]
				}

			}
, 			{
				"patchline" : 				{
					"destination" : [ "obj-158", 0 ],
					"source" : [ "obj-161", 0 ]
				}

			}
, 			{
				"patchline" : 				{
					"destination" : [ "obj-152", 0 ],
					"order" : 3,
					"source" : [ "obj-162", 0 ]
				}

			}
, 			{
				"patchline" : 				{
					"destination" : [ "obj-159", 0 ],
					"midpoints" : [ 634.0, 537.0, 745.0, 537.0, 745.0, 501.0, 759.0, 501.0 ],
					"order" : 0,
					"source" : [ "obj-162", 0 ]
				}

			}
, 			{
				"patchline" : 				{
					"destination" : [ "obj-160", 0 ],
					"midpoints" : [ 634.0, 537.0, 709.0, 537.0, 709.0, 501.0, 723.0, 501.0 ],
					"order" : 1,
					"source" : [ "obj-162", 0 ]
				}

			}
, 			{
				"patchline" : 				{
					"destination" : [ "obj-161", 0 ],
					"midpoints" : [ 634.0, 537.0, 676.0, 537.0, 676.0, 501.0, 689.25, 501.0 ],
					"order" : 2,
					"source" : [ "obj-162", 0 ]
				}

			}
, 			{
				"patchline" : 				{
					"destination" : [ "obj-166", 0 ],
					"source" : [ "obj-163", 0 ]
				}

			}
, 			{
				"patchline" : 				{
					"destination" : [ "obj-163", 0 ],
					"source" : [ "obj-164", 0 ]
				}

			}
, 			{
				"patchline" : 				{
					"destination" : [ "obj-164", 0 ],
					"source" : [ "obj-165", 0 ]
				}

			}
, 			{
				"patchline" : 				{
					"destination" : [ "obj-169", 0 ],
					"source" : [ "obj-167", 0 ]
				}

			}
, 			{
				"patchline" : 				{
					"destination" : [ "obj-170", 0 ],
					"order" : 0,
					"source" : [ "obj-169", 0 ]
				}

			}
, 			{
				"patchline" : 				{
					"destination" : [ "obj-171", 0 ],
					"order" : 0,
					"source" : [ "obj-169", 1 ]
				}

			}
, 			{
				"patchline" : 				{
					"destination" : [ "obj-178", 0 ],
					"order" : 1,
					"source" : [ "obj-169", 1 ]
				}

			}
, 			{
				"patchline" : 				{
					"destination" : [ "obj-178", 0 ],
					"order" : 1,
					"source" : [ "obj-169", 0 ]
				}

			}
, 			{
				"patchline" : 				{
					"destination" : [ "obj-168", 1 ],
					"order" : 3,
					"source" : [ "obj-170", 0 ]
				}

			}
, 			{
				"patchline" : 				{
					"destination" : [ "obj-172", 1 ],
					"order" : 0,
					"source" : [ "obj-170", 0 ]
				}

			}
, 			{
				"patchline" : 				{
					"destination" : [ "obj-173", 1 ],
					"order" : 1,
					"source" : [ "obj-170", 0 ]
				}

			}
, 			{
				"patchline" : 				{
					"destination" : [ "obj-174", 1 ],
					"order" : 2,
					"source" : [ "obj-170", 0 ]
				}

			}
, 			{
				"patchline" : 				{
					"destination" : [ "obj-168", 1 ],
					"order" : 3,
					"source" : [ "obj-171", 0 ]
				}

			}
, 			{
				"patchline" : 				{
					"destination" : [ "obj-172", 1 ],
					"order" : 0,
					"source" : [ "obj-171", 0 ]
				}

			}
, 			{
				"patchline" : 				{
					"destination" : [ "obj-173", 1 ],
					"order" : 1,
					"source" : [ "obj-171", 0 ]
				}

			}
, 			{
				"patchline" : 				{
					"destination" : [ "obj-174", 1 ],
					"order" : 2,
					"source" : [ "obj-171", 0 ]
				}

			}
, 			{
				"patchline" : 				{
					"destination" : [ "obj-172", 0 ],
					"source" : [ "obj-175", 0 ]
				}

			}
, 			{
				"patchline" : 				{
					"destination" : [ "obj-173", 0 ],
					"source" : [ "obj-176", 0 ]
				}

			}
, 			{
				"patchline" : 				{
					"destination" : [ "obj-174", 0 ],
					"source" : [ "obj-177", 0 ]
				}

			}
, 			{
				"patchline" : 				{
					"destination" : [ "obj-168", 0 ],
					"order" : 3,
					"source" : [ "obj-178", 0 ]
				}

			}
, 			{
				"patchline" : 				{
					"destination" : [ "obj-175", 0 ],
					"midpoints" : [ 851.0, 553.0, 962.0, 553.0, 962.0, 517.0, 976.0, 517.0 ],
					"order" : 0,
					"source" : [ "obj-178", 0 ]
				}

			}
, 			{
				"patchline" : 				{
					"destination" : [ "obj-176", 0 ],
					"midpoints" : [ 851.0, 553.0, 926.0, 553.0, 926.0, 517.0, 940.0, 517.0 ],
					"order" : 1,
					"source" : [ "obj-178", 0 ]
				}

			}
, 			{
				"patchline" : 				{
					"destination" : [ "obj-177", 0 ],
					"midpoints" : [ 851.0, 553.0, 893.0, 553.0, 893.0, 517.0, 906.25, 517.0 ],
					"order" : 2,
					"source" : [ "obj-178", 0 ]
				}

			}
, 			{
				"patchline" : 				{
					"destination" : [ "obj-182", 0 ],
					"source" : [ "obj-179", 0 ]
				}

			}
, 			{
				"patchline" : 				{
					"destination" : [ "obj-179", 0 ],
					"source" : [ "obj-180", 0 ]
				}

			}
, 			{
				"patchline" : 				{
					"destination" : [ "obj-180", 0 ],
					"source" : [ "obj-181", 0 ]
				}

			}
, 			{
				"patchline" : 				{
					"destination" : [ "obj-185", 0 ],
					"source" : [ "obj-183", 0 ]
				}

			}
, 			{
				"patchline" : 				{
					"destination" : [ "obj-186", 0 ],
					"order" : 0,
					"source" : [ "obj-185", 0 ]
				}

			}
, 			{
				"patchline" : 				{
					"destination" : [ "obj-187", 0 ],
					"order" : 0,
					"source" : [ "obj-185", 1 ]
				}

			}
, 			{
				"patchline" : 				{
					"destination" : [ "obj-194", 0 ],
					"order" : 1,
					"source" : [ "obj-185", 1 ]
				}

			}
, 			{
				"patchline" : 				{
					"destination" : [ "obj-194", 0 ],
					"order" : 1,
					"source" : [ "obj-185", 0 ]
				}

			}
, 			{
				"patchline" : 				{
					"destination" : [ "obj-184", 1 ],
					"order" : 3,
					"source" : [ "obj-186", 0 ]
				}

			}
, 			{
				"patchline" : 				{
					"destination" : [ "obj-188", 1 ],
					"order" : 0,
					"source" : [ "obj-186", 0 ]
				}

			}
, 			{
				"patchline" : 				{
					"destination" : [ "obj-189", 1 ],
					"order" : 1,
					"source" : [ "obj-186", 0 ]
				}

			}
, 			{
				"patchline" : 				{
					"destination" : [ "obj-190", 1 ],
					"order" : 2,
					"source" : [ "obj-186", 0 ]
				}

			}
, 			{
				"patchline" : 				{
					"destination" : [ "obj-184", 1 ],
					"order" : 3,
					"source" : [ "obj-187", 0 ]
				}

			}
, 			{
				"patchline" : 				{
					"destination" : [ "obj-188", 1 ],
					"order" : 0,
					"source" : [ "obj-187", 0 ]
				}

			}
, 			{
				"patchline" : 				{
					"destination" : [ "obj-189", 1 ],
					"order" : 1,
					"source" : [ "obj-187", 0 ]
				}

			}
, 			{
				"patchline" : 				{
					"destination" : [ "obj-190", 1 ],
					"order" : 2,
					"source" : [ "obj-187", 0 ]
				}

			}
, 			{
				"patchline" : 				{
					"destination" : [ "obj-151", 0 ],
					"source" : [ "obj-19", 0 ]
				}

			}
, 			{
				"patchline" : 				{
					"destination" : [ "obj-188", 0 ],
					"source" : [ "obj-191", 0 ]
				}

			}
, 			{
				"patchline" : 				{
					"destination" : [ "obj-189", 0 ],
					"source" : [ "obj-192", 0 ]
				}

			}
, 			{
				"patchline" : 				{
					"destination" : [ "obj-190", 0 ],
					"source" : [ "obj-193", 0 ]
				}

			}
, 			{
				"patchline" : 				{
					"destination" : [ "obj-184", 0 ],
					"order" : 3,
					"source" : [ "obj-194", 0 ]
				}

			}
, 			{
				"patchline" : 				{
					"destination" : [ "obj-191", 0 ],
					"midpoints" : [ 647.0, 865.0, 758.0, 865.0, 758.0, 829.0, 772.0, 829.0 ],
					"order" : 0,
					"source" : [ "obj-194", 0 ]
				}

			}
, 			{
				"patchline" : 				{
					"destination" : [ "obj-192", 0 ],
					"midpoints" : [ 647.0, 865.0, 722.0, 865.0, 722.0, 829.0, 736.0, 829.0 ],
					"order" : 1,
					"source" : [ "obj-194", 0 ]
				}

			}
, 			{
				"patchline" : 				{
					"destination" : [ "obj-193", 0 ],
					"midpoints" : [ 647.0, 865.0, 689.0, 865.0, 689.0, 829.0, 702.25, 829.0 ],
					"order" : 2,
					"source" : [ "obj-194", 0 ]
				}

			}
, 			{
				"patchline" : 				{
					"destination" : [ "obj-198", 0 ],
					"source" : [ "obj-195", 0 ]
				}

			}
, 			{
				"patchline" : 				{
					"destination" : [ "obj-195", 0 ],
					"source" : [ "obj-196", 0 ]
				}

			}
, 			{
				"patchline" : 				{
					"destination" : [ "obj-196", 0 ],
					"source" : [ "obj-197", 0 ]
				}

			}
, 			{
				"patchline" : 				{
					"destination" : [ "obj-6", 0 ],
					"order" : 1,
					"source" : [ "obj-2", 0 ]
				}

			}
, 			{
				"patchline" : 				{
					"destination" : [ "obj-8", 0 ],
					"order" : 0,
					"source" : [ "obj-2", 0 ]
				}

			}
, 			{
				"patchline" : 				{
					"destination" : [ "obj-4", 0 ],
					"source" : [ "obj-25", 0 ]
				}

			}
, 			{
				"patchline" : 				{
					"destination" : [ "obj-31", 0 ],
					"source" : [ "obj-28", 0 ]
				}

			}
, 			{
				"patchline" : 				{
					"destination" : [ "obj-30", 0 ],
					"source" : [ "obj-29", 0 ]
				}

			}
, 			{
				"patchline" : 				{
					"destination" : [ "obj-28", 0 ],
					"source" : [ "obj-30", 0 ]
				}

			}
, 			{
				"patchline" : 				{
					"destination" : [ "obj-25", 0 ],
					"source" : [ "obj-33", 1 ]
				}

			}
, 			{
				"patchline" : 				{
					"destination" : [ "obj-25", 0 ],
					"source" : [ "obj-33", 0 ]
				}

			}
, 			{
				"patchline" : 				{
					"destination" : [ "obj-167", 0 ],
					"source" : [ "obj-36", 0 ]
				}

			}
, 			{
				"patchline" : 				{
					"destination" : [ "obj-11", 0 ],
					"source" : [ "obj-4", 4 ]
				}

			}
, 			{
				"patchline" : 				{
					"destination" : [ "obj-13", 0 ],
					"source" : [ "obj-4", 5 ]
				}

			}
, 			{
				"patchline" : 				{
					"destination" : [ "obj-19", 0 ],
					"source" : [ "obj-4", 6 ]
				}

			}
, 			{
				"patchline" : 				{
					"destination" : [ "obj-21", 0 ],
					"source" : [ "obj-4", 7 ]
				}

			}
, 			{
				"patchline" : 				{
					"destination" : [ "obj-34", 0 ],
					"midpoints" : [ 150.136368, 361.0, 80.5, 361.0 ],
					"source" : [ "obj-4", 1 ]
				}

			}
, 			{
				"patchline" : 				{
					"destination" : [ "obj-36", 0 ],
					"source" : [ "obj-4", 8 ]
				}

			}
, 			{
				"patchline" : 				{
					"destination" : [ "obj-39", 0 ],
					"source" : [ "obj-4", 9 ]
				}

			}
, 			{
				"patchline" : 				{
					"destination" : [ "obj-41", 0 ],
					"source" : [ "obj-4", 10 ]
				}

			}
, 			{
				"patchline" : 				{
					"destination" : [ "obj-43", 0 ],
					"source" : [ "obj-4", 11 ]
				}

			}
, 			{
				"patchline" : 				{
					"destination" : [ "obj-49", 0 ],
					"midpoints" : [ 177.409088, 339.5, 294.5, 339.5 ],
					"source" : [ "obj-4", 3 ]
				}

			}
, 			{
				"patchline" : 				{
					"destination" : [ "obj-50", 0 ],
					"midpoints" : [ 163.77272, 351.5, 237.5, 351.5 ],
					"source" : [ "obj-4", 2 ]
				}

			}
, 			{
				"patchline" : 				{
					"destination" : [ "obj-94", 0 ],
					"source" : [ "obj-4", 0 ]
				}

			}
, 			{
				"patchline" : 				{
					"destination" : [ "obj-42", 0 ],
					"source" : [ "obj-40", 0 ]
				}

			}
, 			{
				"patchline" : 				{
					"destination" : [ "obj-183", 0 ],
					"source" : [ "obj-41", 0 ]
				}

			}
, 			{
				"patchline" : 				{
					"destination" : [ "obj-44", 0 ],
					"source" : [ "obj-42", 0 ]
				}

			}
, 			{
				"patchline" : 				{
					"destination" : [ "obj-56", 1 ],
					"order" : 2,
					"source" : [ "obj-48", 0 ]
				}

			}
, 			{
				"patchline" : 				{
					"destination" : [ "obj-56", 0 ],
					"order" : 3,
					"source" : [ "obj-48", 0 ]
				}

			}
, 			{
				"patchline" : 				{
					"destination" : [ "obj-71", 1 ],
					"order" : 0,
					"source" : [ "obj-48", 0 ]
				}

			}
, 			{
				"patchline" : 				{
					"destination" : [ "obj-71", 0 ],
					"order" : 1,
					"source" : [ "obj-48", 0 ]
				}

			}
, 			{
				"patchline" : 				{
					"destination" : [ "obj-1", 0 ],
					"source" : [ "obj-5", 0 ]
				}

			}
, 			{
				"patchline" : 				{
					"destination" : [ "obj-119", 0 ],
					"source" : [ "obj-50", 0 ]
				}

			}
, 			{
				"patchline" : 				{
					"destination" : [ "obj-48", 0 ],
					"source" : [ "obj-54", 0 ]
				}

			}
, 			{
				"patchline" : 				{
					"destination" : [ "obj-66", 1 ],
					"source" : [ "obj-56", 0 ]
				}

			}
, 			{
				"patchline" : 				{
					"destination" : [ "obj-62", 0 ],
					"source" : [ "obj-57", 0 ]
				}

			}
, 			{
				"patchline" : 				{
					"destination" : [ "obj-1", 0 ],
					"source" : [ "obj-6", 0 ]
				}

			}
, 			{
				"patchline" : 				{
					"destination" : [ "obj-60", 0 ],
					"source" : [ "obj-62", 0 ]
				}

			}
, 			{
				"patchline" : 				{
					"destination" : [ "obj-66", 0 ],
					"source" : [ "obj-69", 0 ]
				}

			}
, 			{
				"patchline" : 				{
					"destination" : [ "obj-1", 0 ],
					"source" : [ "obj-7", 0 ]
				}

			}
, 			{
				"patchline" : 				{
					"destination" : [ "obj-73", 0 ],
					"source" : [ "obj-70", 0 ]
				}

			}
, 			{
				"patchline" : 				{
					"destination" : [ "obj-66", 2 ],
					"source" : [ "obj-71", 0 ]
				}

			}
, 			{
				"patchline" : 				{
					"destination" : [ "obj-74", 0 ],
					"source" : [ "obj-73", 0 ]
				}

			}
, 			{
				"patchline" : 				{
					"destination" : [ "obj-69", 0 ],
					"source" : [ "obj-75", 1 ]
				}

			}
, 			{
				"patchline" : 				{
					"destination" : [ "obj-111", 0 ],
					"order" : 3,
					"source" : [ "obj-78", 0 ]
				}

			}
, 			{
				"patchline" : 				{
					"destination" : [ "obj-79", 0 ],
					"midpoints" : [ 12.0, 507.0, 54.0, 507.0, 54.0, 471.0, 67.25, 471.0 ],
					"order" : 2,
					"source" : [ "obj-78", 0 ]
				}

			}
, 			{
				"patchline" : 				{
					"destination" : [ "obj-80", 0 ],
					"midpoints" : [ 12.0, 507.0, 87.0, 507.0, 87.0, 471.0, 101.0, 471.0 ],
					"order" : 1,
					"source" : [ "obj-78", 0 ]
				}

			}
, 			{
				"patchline" : 				{
					"destination" : [ "obj-81", 0 ],
					"midpoints" : [ 12.0, 507.0, 123.0, 507.0, 123.0, 471.0, 137.0, 471.0 ],
					"order" : 0,
					"source" : [ "obj-78", 0 ]
				}

			}
, 			{
				"patchline" : 				{
					"destination" : [ "obj-102", 0 ],
					"source" : [ "obj-79", 0 ]
				}

			}
, 			{
				"patchline" : 				{
					"destination" : [ "obj-5", 0 ],
					"source" : [ "obj-8", 0 ]
				}

			}
, 			{
				"patchline" : 				{
					"destination" : [ "obj-9", 0 ],
					"source" : [ "obj-8", 1 ]
				}

			}
, 			{
				"patchline" : 				{
					"destination" : [ "obj-103", 0 ],
					"source" : [ "obj-80", 0 ]
				}

			}
, 			{
				"patchline" : 				{
					"destination" : [ "obj-104", 0 ],
					"source" : [ "obj-81", 0 ]
				}

			}
, 			{
				"patchline" : 				{
					"destination" : [ "obj-1", 0 ],
					"source" : [ "obj-9", 0 ]
				}

			}
, 			{
				"patchline" : 				{
					"destination" : [ "obj-112", 0 ],
					"source" : [ "obj-94", 0 ]
				}

			}
 ],
		"dependency_cache" : [  ],
		"autosave" : 0
	}

}
